<svg width="1724" height="869" viewBox="0 0 1724 869" fill="none" xmlns="http://www.w3.org/2000/svg">
<mask id="path-1-inside-1" fill="white">
<path fill-rule="evenodd" clip-rule="evenodd" d="M0 0.367432H1724V868.832L177.33 817.116L0 810.898V0.367432Z"/>
</mask>
<path d="M1724 0.367432H1728V-3.63257H1724V0.367432ZM0 0.367432V-3.63257H-4V0.367432H0ZM1724 868.832L1723.87 872.83L1728 872.968V868.832H1724ZM177.33 817.116L177.19 821.113L177.196 821.113L177.33 817.116ZM0 810.898H-4V814.76L-0.140166 814.895L0 810.898ZM1724 -3.63257H0V4.36743H1724V-3.63257ZM1728 868.832V0.367432H1720V868.832H1728ZM177.196 821.113L1723.87 872.83L1724.13 864.835L177.463 813.118L177.196 821.113ZM-0.140166 814.895L177.19 821.113L177.47 813.118L0.140166 806.9L-0.140166 814.895ZM-4 0.367432V810.898H4V0.367432H-4Z" fill="#645E14" mask="url(#path-1-inside-1)"/>
</svg>
