<svg width="57" height="57" viewBox="0 0 57 57" fill="none" xmlns="http://www.w3.org/2000/svg">
<path fill-rule="evenodd" clip-rule="evenodd" d="M20.364 17.4289C20.364 19.2739 18.9752 20.7502 16.7453 20.7502H16.7044C14.5574 20.7502 13.1694 19.2739 13.1694 17.4289C13.1694 15.5449 14.5997 14.1099 16.7874 14.1099C18.9752 14.1099 20.3225 15.5449 20.364 17.4289ZM19.9428 23.3728V42.5879H13.5475V23.3728H19.9428ZM43.0063 42.5882L43.0066 31.5708C43.0066 25.6688 39.8516 22.9219 35.6432 22.9219C32.2477 22.9219 30.7275 24.7869 29.8787 26.0953V23.3736H23.4827C23.567 25.1766 23.4827 42.5887 23.4827 42.5887H29.8787V31.8574C29.8787 31.2831 29.9202 30.7103 30.0893 30.2991C30.5515 29.1518 31.6039 27.964 33.3708 27.964C35.6859 27.964 36.6113 29.726 36.6113 32.3081V42.5882H43.0063Z" fill="#60253D"/>
</svg>
