<svg width="206" height="54" viewBox="0 0 206 54" fill="none" xmlns="http://www.w3.org/2000/svg">
<path d="M9.71585 40.3227C8.21007 40.3227 6.85965 40.0717 5.66459 39.5698C4.46953 39.044 3.52543 38.3269 2.8323 37.4187C2.13916 36.4865 1.75674 35.4229 1.68504 34.2279H5.05511C5.15072 35.2078 5.60484 36.0085 6.41748 36.6299C7.25402 37.2514 8.34153 37.5621 9.68 37.5621C10.9229 37.5621 11.9028 37.2872 12.6199 36.7375C13.3369 36.1878 13.6954 35.4946 13.6954 34.6581C13.6954 33.7976 13.313 33.1642 12.5481 32.7579C11.7833 32.3277 10.6002 31.9094 8.99881 31.5031C7.54084 31.1207 6.34578 30.7383 5.41363 30.3559C4.50538 29.9495 3.71664 29.364 3.04741 28.5991C2.40207 27.8104 2.07941 26.7826 2.07941 25.5159C2.07941 24.512 2.37817 23.5918 2.9757 22.7553C3.57323 21.9187 4.42173 21.2614 5.52119 20.7834C6.62064 20.2815 7.87546 20.0305 9.28563 20.0305C11.4606 20.0305 13.2174 20.5802 14.5559 21.6797C15.8943 22.7792 16.6114 24.2849 16.707 26.197H13.4444C13.3727 25.1693 12.9545 24.3447 12.1896 23.7233C11.4487 23.1018 10.4448 22.7911 9.17807 22.7911C8.00691 22.7911 7.07477 23.0421 6.38163 23.544C5.68849 24.0459 5.34193 24.7032 5.34193 25.5159C5.34193 26.1612 5.54509 26.699 5.95141 27.1292C6.38163 27.5355 6.90746 27.8701 7.52889 28.133C8.17422 28.372 9.05857 28.6469 10.1819 28.9576C11.5921 29.34 12.7394 29.7225 13.6237 30.1049C14.508 30.4634 15.2609 31.0131 15.8824 31.7541C16.5277 32.495 16.8623 33.463 16.8862 34.6581C16.8862 35.7336 16.5875 36.7016 15.9899 37.5621C15.3924 38.4225 14.5439 39.1037 13.4444 39.6056C12.3689 40.0837 11.126 40.3227 9.71585 40.3227ZM22.4598 17.1624C21.8383 17.1624 21.3125 16.9473 20.8823 16.517C20.4521 16.0868 20.237 15.561 20.237 14.9396C20.237 14.3181 20.4521 13.7923 20.8823 13.3621C21.3125 12.9319 21.8383 12.7167 22.4598 12.7167C23.0573 12.7167 23.5592 12.9319 23.9656 13.3621C24.3958 13.7923 24.6109 14.3181 24.6109 14.9396C24.6109 15.561 24.3958 16.0868 23.9656 16.517C23.5592 16.9473 23.0573 17.1624 22.4598 17.1624ZM24.0373 20.3532V40H20.7747V20.3532H24.0373ZM32.8602 23.0421V34.6222C32.8602 35.5783 33.0633 36.2595 33.4697 36.6658C33.876 37.0482 34.5811 37.2394 35.5849 37.2394H37.987V40H35.0471C33.2306 40 31.8683 39.5817 30.96 38.7452C30.0518 37.9086 29.5977 36.5343 29.5977 34.6222V23.0421H27.0522V20.3532H29.5977V15.4056H32.8602V20.3532H37.987V23.0421H32.8602ZM59.1488 29.4237C59.1488 30.0451 59.113 30.7024 59.0413 31.3956H43.3382C43.4577 33.3316 44.115 34.8493 45.31 35.9487C46.529 37.0243 47.9989 37.5621 49.7198 37.5621C51.13 37.5621 52.3011 37.2394 53.2333 36.5941C54.1893 35.9248 54.8586 35.0405 55.241 33.941H58.7545C58.2286 35.8292 57.177 37.3709 55.5995 38.5659C54.022 39.7371 52.0621 40.3227 49.7198 40.3227C47.8555 40.3227 46.1824 39.9044 44.7005 39.0679C43.2426 38.2313 42.0953 37.0482 41.2588 35.5185C40.4222 33.9649 40.0039 32.1723 40.0039 30.1407C40.0039 28.1091 40.4103 26.3285 41.2229 24.7988C42.0355 23.2691 43.1709 22.098 44.6288 21.2853C46.1107 20.4488 47.8077 20.0305 49.7198 20.0305C51.5841 20.0305 53.2333 20.4368 54.6673 21.2495C56.1014 22.0621 57.2009 23.1855 57.9657 24.6196C58.7545 26.0297 59.1488 27.6311 59.1488 29.4237ZM55.7788 28.7425C55.7788 27.4997 55.5039 26.436 54.9542 25.5517C54.4044 24.6435 53.6515 23.9623 52.6955 23.5081C51.7633 23.0301 50.7236 22.7911 49.5764 22.7911C47.9272 22.7911 46.517 23.3169 45.3459 24.3686C44.1986 25.4202 43.5413 26.8782 43.374 28.7425H55.7788ZM64.6742 40.251C63.766 40.251 63.0131 39.9761 62.4155 39.4264C61.8419 38.8527 61.5551 38.1477 61.5551 37.3111C61.5551 36.4746 61.8419 35.7814 62.4155 35.2317C63.0131 34.6581 63.766 34.3713 64.6742 34.3713C65.5586 34.3713 66.2875 34.6581 66.8612 35.2317C67.4348 35.7814 67.7216 36.4746 67.7216 37.3111C67.7216 38.1477 67.4348 38.8527 66.8612 39.4264C66.2875 39.9761 65.5586 40.251 64.6742 40.251ZM76.0667 13.4696V40H71.0474V13.4696H76.0667ZM82.8542 17.7719C81.9698 17.7719 81.2289 17.497 80.6314 16.9473C80.0577 16.3736 79.7709 15.6685 79.7709 14.832C79.7709 13.9955 80.0577 13.3023 80.6314 12.7526C81.2289 12.179 81.9698 11.8921 82.8542 11.8921C83.7385 11.8921 84.4675 12.179 85.0411 12.7526C85.6387 13.3023 85.9374 13.9955 85.9374 14.832C85.9374 15.6685 85.6387 16.3736 85.0411 16.9473C84.4675 17.497 83.7385 17.7719 82.8542 17.7719ZM85.328 20.1381V40H80.3087V20.1381H85.328ZM100.576 19.8513C102.943 19.8513 104.855 20.6041 106.313 22.1099C107.771 23.5918 108.5 25.6712 108.5 28.3481V40H103.48V29.0293C103.48 27.4519 103.086 26.2448 102.297 25.4083C101.509 24.5479 100.433 24.1176 99.0707 24.1176C97.6844 24.1176 96.585 24.5479 95.7723 25.4083C94.9836 26.2448 94.5892 27.4519 94.5892 29.0293V40H89.57V20.1381H94.5892V22.6119C95.2585 21.7514 96.1069 21.0822 97.1347 20.6041C98.1864 20.1022 99.3336 19.8513 100.576 19.8513ZM124.315 40L117.575 31.539V40H112.556V13.4696H117.575V28.5633L124.243 20.1381H130.768L122.021 30.1049L130.84 40H124.315Z" fill="#60253D"/>
<g clip-path="url(#clip0)">
<path d="M205.92 27.5C205.92 39.9264 195.847 50 183.42 50C176.869 50 170.973 47.2008 166.861 42.733C165.781 41.5602 164.825 40.2717 164.011 38.8896C162.047 35.5486 160.92 31.6556 160.92 27.5C160.92 15.0736 170.994 5 183.42 5C187.577 5 191.47 6.12684 194.81 8.09214C196.192 8.9049 197.479 9.86092 198.652 10.9418C203.12 15.0515 205.92 20.9493 205.92 27.5Z" fill="#F0CD00"/>
<path d="M205.92 27.5C205.92 39.6463 196.297 49.5445 184.258 49.9844C172.219 49.5445 162.595 39.6463 162.595 27.5C162.595 15.3537 172.219 5.45552 184.258 5.01562C196.297 5.45552 205.92 15.3537 205.92 27.5Z" fill="#FFDE50"/>
<path d="M198.652 10.9417L166.861 42.7329C165.781 41.5601 164.825 40.2716 164.011 38.8895L194.81 8.09204C196.192 8.9048 197.48 9.86082 198.652 10.9417Z" fill="#FFEA94"/>
<path d="M204.368 19.2742L175.194 48.4489C173.128 47.6371 171.212 46.5286 169.497 45.1758L201.096 13.5767C202.449 15.2913 203.557 17.2079 204.368 19.2742Z" fill="#FFEA94"/>
<path d="M200.904 27.5C200.904 37.1557 193.076 44.9839 183.42 44.9839C180.057 44.9839 176.916 44.0343 174.25 42.3886C173.089 41.6722 172.018 40.8227 171.057 39.8621C170.351 39.1568 169.704 38.39 169.127 37.5717C168.331 36.4449 167.666 35.2198 167.152 33.9185C166.392 31.9945 165.964 29.9024 165.938 27.7149C165.936 27.6433 165.936 27.5716 165.936 27.5C165.936 17.8443 173.764 10.0161 183.42 10.0161C183.492 10.0161 183.564 10.0161 183.636 10.018C185.824 10.0437 187.915 10.4725 189.839 11.232C191.14 11.7463 192.365 12.4112 193.492 13.2065C194.31 13.7851 195.076 14.4307 195.782 15.1369C196.743 16.0966 197.592 17.1684 198.309 18.3301C199.955 20.9961 200.904 24.1369 200.904 27.5Z" fill="#FAA300"/>
<path d="M195.782 15.1369L171.057 39.8621C170.351 39.1568 169.704 38.39 169.127 37.5717C168.331 36.4449 167.666 35.2198 167.152 33.9185C166.392 31.9945 165.964 29.9024 165.938 27.7149C165.936 27.6433 165.936 27.5716 165.936 27.5C165.936 17.8443 173.764 10.0161 183.42 10.0161C183.492 10.0161 183.564 10.0161 183.636 10.018C185.824 10.0437 187.915 10.4725 189.839 11.232C191.14 11.7463 192.365 12.4112 193.492 13.2065C194.31 13.7851 195.076 14.4307 195.782 15.1369Z" fill="#FFBD00"/>
<path d="M200.904 27.5C200.904 37.1557 193.076 44.9839 183.42 44.9839C183.088 44.9839 182.759 44.9747 182.433 44.9563C191.629 44.4448 198.928 36.8242 198.928 27.5C198.928 18.1758 191.629 10.5552 182.433 10.0437C182.759 10.0253 183.088 10.0161 183.42 10.0161C193.076 10.0161 200.904 17.8443 200.904 27.5Z" fill="#F68E00"/>
</g>
<defs>
<clipPath id="clip0">
<rect width="45" height="45" fill="#60253D" transform="translate(161 5)"/>
</clipPath>
</defs>
</svg>
