<svg width="45" height="45" viewBox="0 0 45 45" fill="none" xmlns="http://www.w3.org/2000/svg">
<g clip-path="url(#clip0)">
<path d="M44.9202 22.5C44.9202 34.9264 34.8466 45 22.4202 45C15.8695 45 9.97261 42.2008 5.86108 37.733C4.78108 36.5602 3.82506 35.2717 3.01139 33.8896C1.047 30.5486 -0.079834 26.6556 -0.079834 22.5C-0.079834 10.0736 9.99374 0 22.4202 0C26.5767 0 30.4697 1.12684 33.8098 3.09214C35.1919 3.9049 36.4795 4.86092 37.6522 5.94184C42.1201 10.0515 44.9202 15.9493 44.9202 22.5Z" fill="#F0CD00"/>
<path d="M44.9202 22.5C44.9202 34.6463 35.2967 44.5445 23.2578 44.9844C11.2189 44.5445 1.59534 34.6463 1.59534 22.5C1.59534 10.3537 11.2189 0.455523 23.2578 0.015625C35.2967 0.455523 44.9202 10.3537 44.9202 22.5Z" fill="#FFDE50"/>
<path d="M37.6523 5.94173L5.86117 37.7329C4.78117 36.5601 3.82515 35.2716 3.01147 33.8895L33.8098 3.09204C35.192 3.9048 36.4795 4.86082 37.6523 5.94173Z" fill="#FFEA94"/>
<path d="M43.3683 14.2742L14.1936 43.4489C12.1282 42.6371 10.2115 41.5286 8.49695 40.1758L40.0961 8.57666C41.4489 10.2913 42.5574 12.2079 43.3683 14.2742Z" fill="#FFEA94"/>
<path d="M39.9041 22.5C39.9041 32.1557 32.0759 39.9839 22.4202 39.9839C19.0572 39.9839 15.9163 39.0343 13.2503 37.3886C12.0886 36.6722 11.0178 35.8227 10.0572 34.8621C9.35093 34.1568 8.7044 33.39 8.12675 32.5717C7.33144 31.4449 6.66563 30.2198 6.15226 28.9185C5.39185 26.9945 4.96389 24.9024 4.93818 22.7149C4.93634 22.6433 4.93634 22.5716 4.93634 22.5C4.93634 12.8443 12.7636 5.01611 22.4202 5.01611C22.4919 5.01611 22.5644 5.01611 22.636 5.01795C24.8236 5.04366 26.9147 5.47254 28.8387 6.23203C30.14 6.74632 31.3651 7.41122 32.492 8.20652C33.3102 8.78509 34.0761 9.43071 34.7824 10.1369C35.743 11.0966 36.5925 12.1684 37.3088 13.3301C38.9545 15.9961 39.9041 19.1369 39.9041 22.5Z" fill="#FAA300"/>
<path d="M34.7824 10.1369L10.0572 34.8621C9.35093 34.1568 8.7044 33.39 8.12675 32.5717C7.33144 31.4449 6.66563 30.2198 6.15226 28.9185C5.39185 26.9945 4.96389 24.9024 4.93818 22.7149C4.93634 22.6433 4.93634 22.5716 4.93634 22.5C4.93634 12.8443 12.7636 5.01611 22.4202 5.01611C22.4919 5.01611 22.5644 5.01611 22.636 5.01795C24.8236 5.04366 26.9147 5.47254 28.8387 6.23203C30.14 6.74632 31.3651 7.41122 32.492 8.20652C33.3102 8.78509 34.0761 9.43071 34.7824 10.1369Z" fill="#FFBD00"/>
<path d="M39.9037 22.5C39.9037 32.1557 32.0755 39.9839 22.4198 39.9839C22.0883 39.9839 21.7595 39.9747 21.4326 39.9563C30.6291 39.4448 37.9283 31.8242 37.9283 22.5C37.9283 13.1758 30.6291 5.55519 21.4326 5.04366C21.7595 5.0253 22.0883 5.01611 22.4198 5.01611C32.0755 5.01611 39.9037 12.8443 39.9037 22.5Z" fill="#F68E00"/>
</g>
<defs>
<clipPath id="clip0">
<rect width="45" height="45" fill="white"/>
</clipPath>
</defs>
</svg>
