<svg width="211" height="225" viewBox="0 0 211 225" fill="none" xmlns="http://www.w3.org/2000/svg">
<path d="M101.206 187.5H15.496C7.21187 187.5 0.496582 180.784 0.496582 172.5V157.5H115.614L101.206 187.5Z" fill="#D3DCFB"/>
<path d="M195.511 67.4999V130.517V172.499H15.496C7.21187 172.499 0.496582 165.784 0.496582 157.499V67.4999L105.504 29.9996L195.511 67.4999Z" fill="#EBF5FC"/>
<path d="M26.9855 97.5002H19.0169C17.0754 97.5002 15.5012 95.9261 15.5012 93.9846V86.016C15.5012 84.0745 17.0754 82.5004 19.0169 82.5004H26.9855C28.927 82.5004 30.5011 84.0745 30.5011 86.016V93.9846C30.5011 95.9261 28.927 97.5002 26.9855 97.5002Z" fill="#3C58A0"/>
<path d="M56.9856 97.5002H49.017C47.0754 97.5002 45.5013 95.9261 45.5013 93.9846V86.016C45.5013 84.0745 47.0754 82.5004 49.017 82.5004H56.9856C58.9271 82.5004 60.5012 84.0745 60.5012 86.016V93.9846C60.5012 95.9261 58.9271 97.5002 56.9856 97.5002Z" fill="#3C58A0"/>
<path d="M86.9853 97.5002H79.0167C77.0752 97.5002 75.5011 95.9261 75.5011 93.9846V86.016C75.5011 84.0745 77.0752 82.5004 79.0167 82.5004H86.9853C88.9268 82.5004 90.501 84.0745 90.501 86.016V93.9846C90.501 95.9261 88.9273 97.5002 86.9853 97.5002Z" fill="#3C58A0"/>
<path d="M116.985 97.5002H109.017C107.075 97.5002 105.501 95.9261 105.501 93.9846V86.016C105.501 84.0745 107.075 82.5004 109.017 82.5004H116.985C118.927 82.5004 120.501 84.0745 120.501 86.016V93.9846C120.501 95.9261 118.927 97.5002 116.985 97.5002Z" fill="#3C58A0"/>
<path d="M146.98 97.5002H139.012C137.07 97.5002 135.496 95.9261 135.496 93.9846V86.016C135.496 84.0745 137.07 82.5004 139.012 82.5004H146.98C148.922 82.5004 150.496 84.0745 150.496 86.016V93.9846C150.496 95.9261 148.922 97.5002 146.98 97.5002Z" fill="#3C58A0"/>
<path d="M176.98 97.5002H169.012C167.07 97.5002 165.496 95.9261 165.496 93.9846V86.016C165.496 84.0745 167.07 82.5004 169.012 82.5004H176.98C178.922 82.5004 180.496 84.0745 180.496 86.016V93.9846C180.496 95.9261 178.922 97.5002 176.98 97.5002Z" fill="#3C58A0"/>
<path d="M26.9855 127.5H19.0169C17.0754 127.5 15.5012 125.926 15.5012 123.984V116.016C15.5012 114.074 17.0754 112.5 19.0169 112.5H26.9855C28.927 112.5 30.5011 114.074 30.5011 116.016V123.984C30.5011 125.926 28.927 127.5 26.9855 127.5Z" fill="#3C58A0"/>
<path d="M56.9856 127.5H49.017C47.0754 127.5 45.5013 125.926 45.5013 123.984V116.016C45.5013 114.074 47.0754 112.5 49.017 112.5H56.9856C58.9271 112.5 60.5012 114.074 60.5012 116.016V123.984C60.5012 125.926 58.9271 127.5 56.9856 127.5Z" fill="#3C58A0"/>
<path d="M86.9853 127.5H79.0167C77.0752 127.5 75.5011 125.926 75.5011 123.984V116.016C75.5011 114.074 77.0752 112.5 79.0167 112.5H86.9853C88.9268 112.5 90.501 114.074 90.501 116.016V123.984C90.501 125.926 88.9273 127.5 86.9853 127.5Z" fill="#3C58A0"/>
<path d="M120.501 127.5V116.25C120.501 114.179 118.822 112.5 116.751 112.5H109.251C107.18 112.5 105.501 114.179 105.501 116.25V123.75C105.501 125.821 107.18 127.5 109.251 127.5H120.501Z" fill="#3C58A0"/>
<path d="M26.9855 157.5H19.0169C17.0754 157.5 15.5012 155.926 15.5012 153.984V146.016C15.5012 144.074 17.0754 142.5 19.0169 142.5H26.9855C28.927 142.5 30.5011 144.074 30.5011 146.016V153.984C30.5011 155.926 28.927 157.5 26.9855 157.5Z" fill="#3C58A0"/>
<path d="M56.9856 157.5H49.017C47.0754 157.5 45.5013 155.926 45.5013 153.984V146.016C45.5013 144.074 47.0754 142.5 49.017 142.5H56.9856C58.9271 142.5 60.5012 144.074 60.5012 146.016V153.984C60.5012 155.926 58.9271 157.5 56.9856 157.5Z" fill="#3C58A0"/>
<path d="M86.9853 157.5H79.0167C77.0752 157.5 75.5011 155.926 75.5011 153.984V146.016C75.5011 144.074 77.0752 142.5 79.0167 142.5H86.9853C88.9268 142.5 90.501 144.074 90.501 146.016V153.984C90.501 155.926 88.9273 157.5 86.9853 157.5Z" fill="#3C58A0"/>
<path d="M176.875 82.4999H169.118C168.649 82.4999 168.202 82.5922 167.79 82.7543C169.133 83.2843 170.084 84.5904 170.084 86.1214V93.8778C170.084 95.4088 169.132 96.7149 167.79 97.2449C168.202 97.4075 168.649 97.4998 169.118 97.4998H176.875C178.875 97.4998 180.497 95.8782 180.497 93.8782V86.1219C180.496 84.1215 178.875 82.4999 176.875 82.4999Z" fill="#2A428C"/>
<path d="M146.874 82.4999H139.118C138.649 82.4999 138.202 82.5922 137.79 82.7543C139.133 83.2843 140.084 84.5904 140.084 86.1214V93.8778C140.084 95.4088 139.132 96.7149 137.79 97.2449C138.202 97.4075 138.649 97.4998 139.118 97.4998H146.874C148.875 97.4998 150.496 95.8782 150.496 93.8782V86.1219C150.496 84.1215 148.875 82.4999 146.874 82.4999Z" fill="#2A428C"/>
<path d="M116.88 82.4999H109.123C108.654 82.4999 108.207 82.5922 107.795 82.7543C109.138 83.2843 110.089 84.5904 110.089 86.1214V93.8778C110.089 95.4088 109.138 96.7149 107.795 97.2449C108.207 97.4075 108.654 97.4998 109.123 97.4998H116.88C118.88 97.4998 120.502 95.8782 120.502 93.8782V86.1219C120.501 84.1215 118.879 82.4999 116.88 82.4999Z" fill="#2A428C"/>
<path d="M86.8795 82.4999H79.1231C78.6538 82.4999 78.2068 82.5922 77.7951 82.7543C79.1376 83.2843 80.089 84.5904 80.089 86.1214V93.8778C80.089 95.4088 79.1376 96.7149 77.7951 97.2449C78.2068 97.4075 78.6538 97.4998 79.1231 97.4998H86.8795C88.8798 97.4998 90.5014 95.8782 90.5014 93.8782V86.1219C90.501 84.1215 88.8798 82.4999 86.8795 82.4999Z" fill="#2A428C"/>
<path d="M56.8792 82.4999H49.1229C48.6535 82.4999 48.2066 82.5922 47.7948 82.7543C49.1374 83.2843 50.0883 84.5904 50.0883 86.1214V93.8778C50.0883 95.4088 49.1369 96.7149 47.7948 97.2449C48.2066 97.4075 48.6535 97.4998 49.1229 97.4998H56.8792C58.8796 97.4998 60.5012 95.8782 60.5012 93.8782V86.1219C60.5012 84.1215 58.8796 82.4999 56.8792 82.4999Z" fill="#2A428C"/>
<path d="M26.8794 82.4999H19.1231C18.6538 82.4999 18.2068 82.5922 17.7951 82.7543C19.1376 83.2843 20.089 84.5904 20.089 86.1214V93.8778C20.089 95.4088 19.1376 96.7149 17.7951 97.2449C18.2068 97.4075 18.6538 97.4998 19.1231 97.4998H26.8794C28.8798 97.4998 30.5014 95.8782 30.5014 93.8782V86.1219C30.501 84.1215 28.8794 82.4999 26.8794 82.4999Z" fill="#2A428C"/>
<path d="M26.8794 112.5H19.1231C18.6538 112.5 18.2068 112.592 17.7951 112.754C19.1376 113.284 20.089 114.59 20.089 116.122V123.878C20.089 125.409 19.1376 126.715 17.7951 127.245C18.2068 127.408 18.6538 127.5 19.1231 127.5H26.8794C28.8798 127.5 30.5014 125.879 30.5014 123.879V116.122C30.501 114.122 28.8794 112.5 26.8794 112.5Z" fill="#2A428C"/>
<path d="M26.8794 142.5H19.1231C18.6538 142.5 18.2068 142.592 17.7951 142.755C19.1376 143.285 20.089 144.591 20.089 146.122V153.878C20.089 155.409 19.1376 156.716 17.7951 157.246C18.2068 157.408 18.6538 157.5 19.1231 157.5H26.8794C28.8798 157.5 30.5014 155.879 30.5014 153.879V146.122C30.501 144.121 28.8794 142.5 26.8794 142.5Z" fill="#2A428C"/>
<path d="M56.8792 112.5H49.1229C48.6535 112.5 48.2066 112.592 47.7948 112.754C49.1374 113.284 50.0883 114.59 50.0883 116.122V123.878C50.0883 125.409 49.1369 126.715 47.7948 127.245C48.2066 127.408 48.6535 127.5 49.1229 127.5H56.8792C58.8796 127.5 60.5012 125.879 60.5012 123.879V116.122C60.5012 114.122 58.8796 112.5 56.8792 112.5Z" fill="#2A428C"/>
<path d="M56.8792 142.5H49.1229C48.6535 142.5 48.2066 142.592 47.7948 142.755C49.1374 143.285 50.0883 144.591 50.0883 146.122V153.878C50.0883 155.409 49.1369 156.716 47.7948 157.246C48.2066 157.408 48.6535 157.5 49.1229 157.5H56.8792C58.8796 157.5 60.5012 155.879 60.5012 153.879V146.122C60.5012 144.121 58.8796 142.5 56.8792 142.5Z" fill="#2A428C"/>
<path d="M86.8795 112.5H79.1231C78.6538 112.5 78.2068 112.592 77.7951 112.754C79.1376 113.284 80.089 114.59 80.089 116.122V123.878C80.089 125.409 79.1376 126.715 77.7951 127.245C78.2068 127.408 78.6538 127.5 79.1231 127.5H86.8795C88.8798 127.5 90.5014 125.879 90.5014 123.879V116.122C90.501 114.122 88.8798 112.5 86.8795 112.5Z" fill="#2A428C"/>
<path d="M120.501 127.5V116.122C120.501 114.121 118.879 112.5 116.879 112.5H109.123C108.653 112.5 108.206 112.592 107.795 112.754C109.137 113.284 110.089 114.59 110.089 116.122V123.878C110.089 125.409 109.137 126.715 107.795 127.245C108.206 127.408 108.653 127.5 109.123 127.5H120.501V127.5Z" fill="#2A428C"/>
<path d="M86.8795 142.5H79.1231C78.6538 142.5 78.2068 142.592 77.7951 142.755C79.1376 143.285 80.089 144.591 80.089 146.122V153.878C80.089 155.409 79.1376 156.716 77.7951 157.246C78.2068 157.408 78.6538 157.5 79.1231 157.5H86.8795C88.8798 157.5 90.5014 155.879 90.5014 153.879V146.122C90.501 144.121 88.8798 142.5 86.8795 142.5Z" fill="#2A428C"/>
<path d="M185.091 63.1587V130.517V172.5H195.511V130.517V67.5L185.091 63.1587Z" fill="#D3DCFB"/>
<path d="M195.511 67.5V29.9997C195.511 21.7156 188.795 15.0003 180.512 15.0003H15.496C7.21187 15.0003 0.496582 21.7156 0.496582 29.9997V67.5H195.511Z" fill="#F8A8C8"/>
<path d="M47.7598 33.3953H37.9965C36.1209 33.3953 34.6013 31.8753 34.6013 30.0001C34.6013 28.125 36.1213 26.6049 37.9965 26.6049H47.7598C49.6354 26.6049 51.155 28.125 51.155 30.0001C51.155 31.8753 49.6349 33.3953 47.7598 33.3953Z" fill="#60253D"/>
<path d="M71.746 33.3953H61.9827C60.1071 33.3953 58.5875 31.8753 58.5875 30.0001C58.5875 28.125 60.1075 26.6049 61.9827 26.6049H71.746C73.6216 26.6049 75.1412 28.125 75.1412 30.0001C75.1412 31.8753 73.6216 33.3953 71.746 33.3953Z" fill="#60253D"/>
<path d="M134.015 33.3953H124.251C122.375 33.3953 120.856 31.8753 120.856 30.0001C120.856 28.125 122.376 26.6049 124.251 26.6049H134.015C135.89 26.6049 137.41 28.125 137.41 30.0001C137.41 31.8753 135.89 33.3953 134.015 33.3953Z" fill="#60253D"/>
<path d="M158.001 33.3953H148.238C146.362 33.3953 144.842 31.8753 144.842 30.0001C144.842 28.125 146.362 26.6049 148.238 26.6049H158.001C159.877 26.6049 161.397 28.125 161.397 30.0001C161.397 31.8753 159.877 33.3953 158.001 33.3953Z" fill="#60253D"/>
<path d="M64.2463 28.125C64.2463 33.3026 60.0491 37.4999 54.8715 37.4999C49.6939 37.4999 45.4966 33.3026 45.4966 28.125V9.37485C45.4962 4.19722 49.6934 0 54.871 0C60.0487 0 64.2459 4.19722 64.2459 9.37485V28.125H64.2463Z" fill="#EBF5FC"/>
<path d="M150.501 28.125C150.501 33.3026 146.304 37.4999 141.126 37.4999C135.949 37.4999 131.751 33.3026 131.751 28.125V9.37485C131.751 4.19722 135.948 0 141.126 0C146.304 0 150.501 4.19722 150.501 9.37485V28.125H150.501Z" fill="#EBF5FC"/>
<path d="M141.126 0C139.201 0 137.413 0.581836 135.925 1.57676C138.44 3.25811 140.098 6.12202 140.098 9.37529V28.125C140.098 31.3778 138.44 34.2422 135.925 35.9235C137.413 36.918 139.201 37.5003 141.126 37.5003C146.304 37.5003 150.501 33.3031 150.501 28.1254V9.37485C150.501 4.19722 146.304 0 141.126 0V0Z" fill="#D3DCFB"/>
<path d="M54.871 0C52.9462 0 51.1585 0.581836 49.6696 1.57676C52.1855 3.25811 53.8436 6.12202 53.8436 9.37529V28.125C53.8436 31.3778 52.1855 34.2422 49.6696 35.9235C51.1581 36.918 52.9462 37.5003 54.871 37.5003C60.0486 37.5003 64.2458 33.3031 64.2458 28.1254V9.37485C64.2463 4.19722 60.0491 0 54.871 0V0Z" fill="#D3DCFB"/>
<path d="M180.512 14.9998H170.095C178.379 14.9998 185.095 21.7151 185.095 29.9992V67.5H195.511V29.9997C195.511 21.7155 188.795 14.9998 180.512 14.9998Z" fill="#60253D"/>
<path d="M0.496124 49.1045H195.511V55.8954H0.496124V49.1045Z" fill="#60253D"/>
<path d="M154.254 225C185.32 225 210.504 199.816 210.504 168.75C210.504 137.684 185.32 112.5 154.254 112.5C123.188 112.5 98.0037 137.684 98.0037 168.75C98.0037 199.816 123.188 225 154.254 225Z" fill="#04ACE7"/>
<path d="M154.254 210C177.036 210 195.504 191.532 195.504 168.75C195.504 145.968 177.036 127.5 154.254 127.5C131.472 127.5 113.004 145.968 113.004 168.75C113.004 191.532 131.472 210 154.254 210Z" fill="#EBF5FC"/>
<path d="M154.254 164.645C152.378 164.645 150.859 163.125 150.859 161.25V142.5C150.859 140.625 152.379 139.104 154.254 139.104C156.129 139.104 157.649 140.625 157.649 142.5V161.25C157.649 163.125 156.129 164.645 154.254 164.645Z" fill="#3C58A0"/>
<path d="M173.004 172.145H161.753C159.878 172.145 158.358 170.625 158.358 168.75C158.358 166.875 159.878 165.355 161.753 165.355H173.004C174.879 165.355 176.399 166.875 176.399 168.75C176.399 170.625 174.879 172.145 173.004 172.145Z" fill="#3C58A0"/>
<path d="M154.254 112.5C152.498 112.5 150.762 112.585 149.048 112.742C177.672 115.37 200.091 139.44 200.091 168.75C200.091 198.06 177.672 222.13 149.047 224.758C150.762 224.915 152.498 225 154.253 225C185.319 225 210.503 199.816 210.503 168.75C210.503 137.684 185.32 112.5 154.254 112.5Z" fill="#1886EA"/>
<path d="M154.254 127.5C152.492 127.5 150.755 127.611 149.051 127.825C169.377 130.384 185.099 147.73 185.099 168.75C185.099 189.769 169.377 207.116 149.051 209.674C150.755 209.889 152.492 210 154.254 210C177.035 210 195.504 191.532 195.504 168.75C195.504 145.968 177.035 127.5 154.254 127.5Z" fill="#D3DCFB"/>
<path d="M154.254 176.25C158.396 176.25 161.754 172.892 161.754 168.75C161.754 164.608 158.396 161.25 154.254 161.25C150.112 161.25 146.754 164.608 146.754 168.75C146.754 172.892 150.112 176.25 154.254 176.25Z" fill="#FFDD40"/>
</svg>
