<svg width="230" height="176" viewBox="0 0 230 176" fill="none" xmlns="http://www.w3.org/2000/svg">
<path d="M0.921875 8.69531C0.921875 4.27703 4.5036 0.695312 8.92188 0.695312H221.078C225.496 0.695312 229.078 4.27703 229.078 8.69531V167.305C229.078 171.723 225.496 175.305 221.078 175.305H8.92187C4.5036 175.305 0.921875 171.723 0.921875 167.305V8.69531Z" fill="#EDE9E8"/>
<path d="M115 8.69531C115 4.27703 118.582 0.695312 123 0.695312H221.078C225.496 0.695312 229.078 4.27703 229.078 8.69531V167.305C229.078 171.723 225.496 175.305 221.078 175.305H123C118.582 175.305 115 171.723 115 167.305V8.69531Z" fill="#DFD7D5"/>
<path d="M128.556 71.4598V104.54L176.113 128.318V47.6815L128.556 71.4598Z" fill="#35975F"/>
<path d="M18.3828 18.1562H53.3047V35.6172H18.3828V18.1562Z" fill="#F8A8C8"/>
<path d="M53.3047 53.0781V122.922H141.191V53.0781H53.3047Z" fill="#04ACE7"/>
<path d="M115 53.0781H141.191V122.922H115V53.0781Z" fill="#00C0F1"/>
</svg>
