<svg width="402" height="401" viewBox="0 0 402 401" fill="none" xmlns="http://www.w3.org/2000/svg">
<ellipse cx="200.842" cy="200.5" rx="200.342" ry="200.5" fill="#F2F2F2"/>
<path d="M259.36 258.955L153.556 200.696L259.36 142.435C266.114 138.715 268.577 130.221 264.862 123.462C261.144 116.704 252.659 114.234 245.903 117.956L117.87 188.456C113.41 190.912 110.639 195.603 110.639 200.696C110.639 205.789 113.408 210.48 117.87 212.936L245.903 283.435C248.037 284.609 250.343 285.167 252.619 285.167C257.544 285.167 262.318 282.554 264.862 277.929C268.577 271.171 266.114 262.675 259.36 258.955Z" fill="#464646"/>
<path d="M124.598 228.893C140.158 228.893 152.772 216.269 152.772 200.697C152.772 185.124 140.158 172.501 124.598 172.501C109.038 172.501 96.4243 185.124 96.4243 200.697C96.4243 216.269 109.038 228.893 124.598 228.893Z" fill="#464646"/>
<path d="M252.632 158.392C268.192 158.392 280.806 145.768 280.806 130.196C280.806 114.624 268.192 102 252.632 102C237.072 102 224.458 114.624 224.458 130.196C224.458 145.768 237.072 158.392 252.632 158.392Z" fill="#464646"/>
<path d="M252.632 299.394C268.192 299.394 280.806 286.77 280.806 271.197C280.806 255.625 268.192 243.001 252.632 243.001C237.072 243.001 224.458 255.625 224.458 271.197C224.458 286.77 237.072 299.394 252.632 299.394Z" fill="#464646"/>
<path d="M401.5 32.1995V106.698C401.5 116.75 393.358 124.898 383.315 124.898H331.427L304.103 150V124.898H288.473C278.429 124.898 270.288 116.75 270.288 106.698V32.1995C270.288 22.1479 278.429 14 288.473 14H383.315C393.358 14 401.5 22.1486 401.5 32.1995Z" fill="#FF8CCC"/>
<path d="M383.315 14H352.562C362.606 14 370.747 22.1479 370.747 32.1995V106.698C370.747 116.75 362.605 124.898 352.562 124.898H383.315C393.359 124.898 401.5 116.749 401.5 106.698V32.1995C401.5 22.1479 393.359 14 383.315 14Z" fill="#FF78C2"/>
<path d="M335.895 51.2697C340.492 42.946 351.726 39.6677 359.868 44.8323C367.035 49.3774 369.136 59.0181 367.252 66.868C363.471 82.6277 349.91 93.5573 335.895 99.9561C321.879 93.5573 308.319 82.6277 304.537 66.868C302.648 58.9961 304.766 49.4047 311.921 44.8323C320.048 39.6389 331.309 42.9672 335.895 51.2697Z" fill="white"/>
</svg>
