<svg width="1920" height="970" viewBox="0 0 1920 970" fill="none" xmlns="http://www.w3.org/2000/svg">
<path d="M1920 0L0 0V902.679L1920 970V0Z" fill="#F7EE7F"/>
<path d="M1920 0L0 0V902.679L1920 970V0Z" fill="url(#paint0_radial)"/>
<mask id="path-2-inside-1" fill="white">
<path fill-rule="evenodd" clip-rule="evenodd" d="M98 49.3674H1822V917.832L275.33 866.116L98 859.898V49.3674Z"/>
</mask>
<path d="M1822 49.3674H1826V45.3674H1822V49.3674ZM98 49.3674V45.3674H94V49.3674H98ZM1822 917.832L1821.87 921.83L1826 921.968V917.832H1822ZM275.33 866.116L275.19 870.113L275.196 870.113L275.33 866.116ZM98 859.898H94V863.76L97.8598 863.895L98 859.898ZM1822 45.3674H98V53.3674H1822V45.3674ZM1826 917.832V49.3674H1818V917.832H1826ZM275.196 870.113L1821.87 921.83L1822.13 913.835L275.463 862.118L275.196 870.113ZM97.8598 863.895L275.19 870.113L275.47 862.118L98.1402 855.9L97.8598 863.895ZM94 49.3674V859.898H102V49.3674H94Z" fill="#645E14" mask="url(#path-2-inside-1)"/>
<defs>
<radialGradient id="paint0_radial" cx="0" cy="0" r="1" gradientUnits="userSpaceOnUse" gradientTransform="translate(960 484.5) rotate(90) scale(484.5 960)">
<stop stop-color="#FFF4AA" stop-opacity="0.26"/>
<stop offset="1" stop-color="white" stop-opacity="0"/>
</radialGradient>
</defs>
</svg>
