<svg width="401" height="401" viewBox="0 0 401 401" fill="none" xmlns="http://www.w3.org/2000/svg">
<circle cx="200.5" cy="200.5" r="200.5" fill="#F2F2F2"/>
<path d="M201.5 73L263.562 104.94L325.884 136.62L263.562 168.56L201.5 200.5L139.438 168.56L77.1161 136.62L139.438 104.94L201.5 73Z" fill="#D9AC80"/>
<path d="M279.143 189.594V160.77L247.982 176.61V205.434L265.12 184.4L279.143 189.594Z" fill="#D7BAA4"/>
<path d="M201.5 200.5V328L325.884 264.38V136.62L279.143 160.77L278.104 161.289V189.334L265.12 184.4L247.982 205.434V176.61L201.5 200.5Z" fill="#A67E4F"/>
<path d="M201.5 328V200.5L139.438 168.56L77.1161 136.62V264.38L201.5 328Z" fill="#926E43"/>
<path d="M123.857 112.73L247.982 176.61L278.104 161.289L279.143 160.77L155.018 96.89L139.438 104.94L123.857 112.73Z" fill="#F2D3BA"/>
</svg>
