<svg width="254" height="182" viewBox="0 0 254 182" fill="none" xmlns="http://www.w3.org/2000/svg">
<path d="M0 17.4367V164.564C0 173.937 7.66911 181.606 17.0423 181.606H236.958C246.331 181.606 254 173.937 254 164.564C254 159.307 254 22.7117 254 17.4367C254 8.06352 246.331 0.394409 236.958 0.394409H17.0423C7.66911 0.394409 0 8.06352 0 17.4367H0Z" fill="#695D67"/>
<path d="M17.6386 164.564V17.4367C17.6386 8.06352 25.3072 0.394409 34.6809 0.394409H17.0423C7.66911 0.394409 0 8.06352 0 17.4367V164.564C0 173.937 7.66911 181.606 17.0423 181.606H34.6809C25.3072 181.606 17.6386 173.937 17.6386 164.564Z" fill="#544E55"/>
<path d="M16.6161 17.4368V164.563C16.6161 164.758 16.8468 164.989 17.0417 164.989H222.002C222.197 164.989 222.429 164.758 222.429 164.563V17.4368C222.429 17.2413 222.198 17.0106 222.002 17.0106C219.086 17.0106 20.6354 17.0106 17.0417 17.0106C16.8473 17.0106 16.6161 17.2418 16.6161 17.4368Z" fill="#F8A8C8"/>
<path d="M34.2547 164.563V17.4368C34.2547 17.2413 34.4854 17.0106 34.6804 17.0106C24.2455 17.0106 17.6693 17.0106 17.0417 17.0106C16.8468 17.0106 16.6161 17.2418 16.6161 17.4368V164.563C16.6161 164.758 16.8468 164.989 17.0417 164.989H34.6804C34.4859 164.989 34.2547 164.758 34.2547 164.563Z" fill="#F8A8C8"/>
<path d="M119.016 43.763C100.593 43.763 85.52 58.8363 85.52 77.2592C85.52 95.6822 100.593 110.755 119.016 110.755C137.439 110.755 152.513 95.6822 152.513 77.2592C152.513 58.8363 137.439 43.763 119.016 43.763Z" fill="#DFEBFA"/>
<path d="M109.54 77.2587C109.54 63.064 118.492 50.8665 131.027 46.0113C127.293 44.5652 123.245 43.763 119.017 43.763C100.594 43.763 85.5205 58.8363 85.5205 77.2592C85.5205 95.6822 100.594 110.755 119.017 110.755C123.245 110.755 127.293 109.953 131.027 108.507C118.492 103.651 109.54 91.4535 109.54 77.2587Z" fill="#B1DBFC"/>
<path d="M133.052 74.2628L114.012 62.7946C111.681 61.3907 108.71 63.0694 108.71 65.7905V88.7274C108.71 91.4485 111.681 93.1273 114.012 91.7233L133.052 80.2551C135.309 78.8953 135.309 75.6226 133.052 74.2628Z" fill="#F8A8C8"/>
<path d="M157.176 131.155H43.8895C39.9381 131.155 36.7343 134.359 36.7343 138.31C36.7343 142.262 39.9376 145.466 43.8895 145.466H157.176V131.155Z" fill="#DFEBFA"/>
<path d="M194.143 131.155H157.176V145.465H194.143C198.095 145.465 201.298 142.262 201.298 138.31C201.298 134.359 198.095 131.155 194.143 131.155Z" fill="#DFEBFA"/>
<path d="M156.833 152.727C154.716 152.727 153 151.011 153 148.894V126.833C153 124.716 154.716 123 156.833 123C158.949 123 160.665 124.716 160.665 126.833V148.894C160.666 151.011 158.949 152.727 156.833 152.727Z" fill="#60253D"/>
<path d="M236.529 98.1333C234.412 98.1333 232.696 96.4173 232.696 94.3005V87.6995C232.696 85.5826 234.412 83.8666 236.529 83.8666C238.646 83.8666 240.362 85.5826 240.362 87.6995V94.3005C240.362 96.4173 238.646 98.1333 236.529 98.1333Z" fill="#544E55"/>
</svg>
