<svg width="402" height="401" viewBox="0 0 402 401" fill="none" xmlns="http://www.w3.org/2000/svg">
<circle cx="201" cy="200.5" r="200.5" fill="#F2F2F2"/>
<path d="M359.013 201.257C359.013 249.253 337.646 292.258 303.906 321.281C276.206 345.109 240.164 325.824 200.756 325.824C161.349 325.824 125.309 345.109 97.6062 321.281C63.8671 292.258 42.5 249.253 42.5 201.257C42.5 113.856 113.353 43.0026 200.755 43.0026C288.156 43.0026 359.013 113.854 359.013 201.257Z" fill="#333333"/>
<path d="M200.758 42.9998C191.727 42.9998 182.876 43.7681 174.256 45.2207C249.04 57.831 306.01 122.884 306.01 201.254C306.01 279.625 249.04 344.68 174.256 357.288C182.874 358.741 191.725 355.448 200.758 355.448C240.163 355.448 276.206 345.107 303.906 321.278C337.645 292.255 359.012 249.25 359.012 201.254C359.012 113.853 288.161 42.9998 200.758 42.9998Z" fill="#252525"/>
<path d="M200.758 227.321C146.794 227.321 102.484 268.584 97.613 321.276C125.314 345.104 161.353 359.512 200.758 359.512C240.164 359.512 276.202 345.104 303.903 321.276C299.032 268.584 254.722 227.321 200.758 227.321Z" fill="#AEE49E"/>
<path d="M287.859 274.87C265.309 317.693 223.713 348.927 174.328 357.277C217.34 364.621 267.422 353.458 303.9 321.279C303.9 321.279 303.901 321.278 303.903 321.276C302.332 304.28 296.638 288.487 287.859 274.87Z" fill="#8BD8A5"/>
<path d="M200.758 249.134C170.571 249.134 146.101 224.663 146.101 194.477V173.63C146.101 143.444 170.573 118.973 200.758 118.973C230.944 118.973 255.415 143.444 255.415 173.63V194.477C255.415 224.663 230.944 249.134 200.758 249.134Z" fill="#FFCEBF"/>
<path d="M200.758 118.973C191.14 118.973 182.107 121.465 174.256 125.828C191.046 135.156 202.411 153.062 202.411 173.63V194.476C202.411 215.044 191.044 232.95 174.256 242.278C182.107 246.641 191.14 249.133 200.758 249.133C230.945 249.133 255.415 224.661 255.415 194.476V173.63C255.415 143.443 230.945 118.973 200.758 118.973Z" fill="#FFB09E"/>
<path d="M388.247 77.8741C388.247 82.7467 382.79 86.8375 381.589 91.3315C380.346 95.9813 382.99 102.246 380.635 106.317C378.246 110.446 371.476 111.274 368.125 114.625C364.773 117.977 363.946 124.746 359.816 127.135C355.745 129.491 349.481 126.846 344.831 128.089C340.337 129.29 336.246 134.748 331.374 134.748C326.501 134.748 322.41 129.291 317.916 128.09C313.267 126.847 307.002 129.491 302.931 127.136C298.801 124.747 297.974 117.977 294.623 114.626C291.271 111.274 284.502 110.447 282.113 106.317C279.757 102.246 282.401 95.9819 281.159 91.332C279.958 86.8381 274.5 82.7473 274.5 77.8747C274.5 73.0021 279.957 68.9113 281.158 64.4174C282.401 59.7675 279.757 53.503 282.112 49.4322C284.501 45.3024 291.271 44.475 294.622 41.1236C297.974 37.7722 298.801 31.0027 302.931 28.6134C307.002 26.2582 313.266 28.9024 317.916 27.6596C322.41 26.4586 326.501 21.0009 331.373 21.0009C336.246 21.0009 340.337 26.4581 344.831 27.6591C349.48 28.9019 355.745 26.2576 359.816 28.6129C363.946 31.0021 364.773 37.7717 368.124 41.1231C371.476 44.4745 378.245 45.3019 380.635 49.4317C382.99 53.503 380.346 59.767 381.588 64.4168C382.79 68.9108 388.247 73.001 388.247 77.8741Z" fill="#B3DAFE"/>
<path d="M381.589 91.3305C382.79 86.8366 388.247 82.7463 388.247 77.8737C388.247 73.0012 382.79 68.9104 381.589 64.4164C380.346 59.7666 382.99 53.5026 380.635 49.4312C378.246 45.3014 371.476 44.4746 368.125 41.1227C364.774 37.7713 363.946 31.0017 359.816 28.6125C355.745 26.2572 349.481 28.9014 344.831 27.6587C340.337 26.4576 336.247 20.9999 331.374 20.9999C328.293 20.9999 325.525 23.1803 322.77 25.0885C324.372 26.1982 325.97 27.2166 327.623 27.6581C332.273 28.9009 338.537 26.2566 342.608 28.6119C346.738 31.0011 347.565 37.7707 350.917 41.1221C354.268 44.4735 361.038 45.3009 363.427 49.4307C365.782 53.502 363.138 59.766 364.381 64.4159C365.582 68.9098 371.039 73.0006 371.039 77.8732C371.039 82.7457 365.582 86.8366 364.381 91.3305C363.138 95.9803 365.782 102.245 363.427 106.316C361.038 110.445 354.268 111.272 350.917 114.624C347.565 117.976 346.738 124.745 342.608 127.134C338.537 129.49 332.273 126.845 327.623 128.088C325.97 128.53 324.372 129.548 322.77 130.658C325.525 132.566 328.293 134.746 331.374 134.746C336.247 134.746 340.337 129.289 344.831 128.088C349.481 126.845 355.745 129.49 359.816 127.134C363.946 124.745 364.773 117.976 368.125 114.624C371.476 111.273 378.246 110.445 380.635 106.316C382.99 102.245 380.346 95.9803 381.589 91.3305Z" fill="#8AC9FE"/>
<path d="M319.8 99.669C317.865 99.669 316.047 98.9151 314.678 97.5465L302.484 85.3525C300.804 83.6721 300.804 80.9488 302.484 79.2678C304.164 77.5885 306.888 77.5885 308.569 79.2678L319.8 90.5002L354.18 56.1211C355.861 54.4417 358.584 54.4417 360.264 56.1211C361.944 57.8015 361.944 60.5248 360.264 62.2058L324.921 97.5481C323.554 98.9145 321.735 99.669 319.8 99.669Z" fill="white"/>
</svg>
