<svg width="401" height="402" viewBox="0 0 401 402" fill="none" xmlns="http://www.w3.org/2000/svg">
<circle cx="200.5" cy="201" r="200.5" fill="#F2F2F2"/>
<path d="M225.86 194.8C223.76 193.459 221.768 192.176 219.881 190.955L230.066 147.078C235.079 149.977 238.178 153.596 239.403 156.641C242.295 163.819 250.449 167.284 257.617 164.382C264.785 161.481 268.252 153.31 265.36 146.133C261.063 135.466 251.19 125.102 236.563 119.091L237.233 116.207C238.983 108.667 234.299 101.135 226.772 99.3876C219.245 97.6403 211.722 102.338 209.972 109.879L209.061 113.802C206.883 113.783 204.653 113.843 202.368 113.992C184.067 115.182 167.292 128.829 161.577 147.18C155.932 165.299 162.013 183.593 177.839 196.119C180.084 197.895 183.651 200.457 188.218 203.585L176.02 256.13C169.494 252.403 163.871 247.387 160.896 241.212C157.533 234.243 149.169 231.326 142.209 234.694C135.248 238.064 132.328 246.446 135.686 253.417C142.751 268.075 155.879 278.085 169.502 284.206L169.055 286.135C167.304 293.675 171.988 301.207 179.515 302.954C187.042 304.702 194.566 300.004 196.316 292.463L196.521 291.578C227.528 294.75 245.233 278.175 251.522 261.168C260.324 237.367 249.771 210.075 225.86 194.8ZM188.294 155.512C190.374 148.837 196.278 143.389 202.471 142.19L195.081 174.022C186.778 167.384 186.802 160.298 188.294 155.512ZM225.276 251.449C222.207 259.751 214.205 264.142 202.945 263.906L213.129 220.039C225.946 229.464 228.513 242.699 225.276 251.449Z" fill="url(#paint0_linear)"/>
<defs>
<linearGradient id="paint0_linear" x1="144.114" y1="203.42" x2="259.134" y2="230.122" gradientUnits="userSpaceOnUse">
<stop stop-color="#47D0FF"/>
<stop offset="1" stop-color="#00AAE6"/>
</linearGradient>
</defs>
</svg>
