<svg width="368" height="270" viewBox="0 0 368 270" fill="none" xmlns="http://www.w3.org/2000/svg">
<g clip-path="url(#clip0)">
<path d="M162.158 152.576L37.0378 182.461C32.9122 183.446 28.769 180.901 27.7836 176.775L5.66983 84.1912C4.68443 80.0656 7.23001 75.9224 11.3556 74.937L46.6766 66.5006C49.3752 65.856 52.2119 66.7171 54.0969 68.7534L59.9655 75.0933C61.8502 77.1296 64.6869 77.9908 67.3859 77.3461L140.045 59.9915C144.17 59.0061 148.314 61.5517 149.299 65.6773L167.844 143.322C168.829 147.447 166.284 151.591 162.158 152.576Z" fill="url(#paint0_linear)"/>
<path d="M37.0378 182.461L162.158 152.576C166.284 151.591 168.829 147.448 167.844 143.322L149.298 65.6779C148.313 61.5523 144.17 59.0067 140.044 59.9921L86.0487 72.889C83.35 73.5336 81.2087 75.5838 80.4474 78.2521L78.0773 86.5597C77.3163 89.228 75.175 91.2782 72.476 91.9228L18.4924 104.817C14.3668 105.802 11.8212 109.945 12.8066 114.071L27.7836 176.775C28.769 180.901 32.9122 183.447 37.0378 182.461Z" fill="#7CDDFF"/>
<path d="M143.268 59.9322C143.915 60.7679 144.41 61.7404 144.671 62.835L163.216 140.479C164.202 144.604 161.656 148.748 157.531 149.733L32.4107 179.618C31.316 179.88 30.2248 179.878 29.1871 179.679C30.9777 181.992 34.0071 183.185 37.0378 182.461L162.158 152.576C166.284 151.591 168.829 147.448 167.844 143.322L149.298 65.6779C148.575 62.6469 146.142 60.4838 143.268 59.9322Z" fill="url(#paint1_linear)"/>
</g>
<g clip-path="url(#clip1)">
<path d="M260.932 140.587L162.962 118.178C153.96 116.119 144.958 121.769 142.899 130.771L122.98 217.855C120.92 226.858 126.571 235.859 135.573 237.919L233.543 260.328C242.545 262.387 251.547 256.737 253.606 247.734L273.525 160.65C275.585 151.648 269.934 142.646 260.932 140.587Z" fill="#607D8B"/>
<path d="M236.033 249.442L138.063 227.033C135.064 226.347 133.178 223.35 133.865 220.345L151.295 144.146L260.15 169.046L242.721 245.244C242.033 248.249 239.032 250.128 236.033 249.442Z" fill="white"/>
<path d="M211.947 129.382L162.962 118.178C153.96 116.119 144.958 121.769 142.899 130.771L122.98 217.855C120.92 226.858 126.571 235.859 135.573 237.919L184.558 249.123L187.048 238.238L138.063 227.033C135.064 226.347 133.178 223.35 133.865 220.345L151.295 144.147L205.722 156.596L211.947 129.382Z" fill="#546D79"/>
<path d="M205.722 156.596L151.295 144.146L133.865 220.345C133.178 223.35 135.064 226.347 138.063 227.033L187.048 238.238L205.722 156.596Z" fill="#DEDEDE"/>
<path d="M210.339 217.791C209.397 217.576 208.529 217.039 207.908 216.199C206.535 214.338 206.923 211.718 208.785 210.339L216.238 204.822L211.92 196.606C210.842 194.561 211.633 192.027 213.678 190.948C215.734 189.872 218.263 190.662 219.336 192.706L225.321 204.099C226.283 205.928 225.768 208.181 224.105 209.416L213.762 217.074C212.741 217.831 211.487 218.054 210.339 217.791Z" fill="url(#paint2_linear)"/>
<path d="M174.961 209.699C173.813 209.436 172.78 208.69 172.185 207.563L166.199 196.171C165.238 194.342 165.753 192.088 167.416 190.853L177.759 183.196C179.619 181.823 182.241 182.205 183.618 184.072C184.991 185.933 184.603 188.553 182.742 189.932L175.287 195.455L179.605 203.67C180.683 205.716 179.892 208.249 177.847 209.328C176.924 209.804 175.903 209.914 174.961 209.699Z" fill="url(#paint3_linear)"/>
<path d="M185.81 220.663C183.727 219.654 182.862 217.148 183.865 215.069L200.121 181.558C201.129 179.481 203.632 178.627 205.715 179.613C207.798 180.622 208.663 183.128 207.66 185.207L191.404 218.718C190.415 220.76 187.947 221.684 185.81 220.663Z" fill="url(#paint4_linear)"/>
</g>
<g clip-path="url(#clip2)">
<path d="M320.645 96.6523C317.765 96.5441 314.777 96.1432 311.754 95.4251C311.53 95.3723 311.306 95.3156 311.083 95.2597C304.659 93.6406 299.055 90.8078 294.792 87.3162C288.35 82.0354 284.977 75.2491 286.492 68.8655C288.491 60.4414 298.403 55.2184 310.54 55.2322C312.081 55.2364 313.568 54.848 314.881 54.1317C316.19 53.4198 317.327 52.3799 318.161 51.086C320.923 46.8082 319.856 41.1115 315.72 38.1362C310.054 34.0541 301.418 28.8989 291.434 26.5298C257.893 18.5699 223.965 40.1642 215.551 73.5929C206.788 108.411 228.231 143.562 263.072 151.783C291.687 158.537 320.648 144.742 334.187 120.028C334.295 119.83 334.409 119.608 334.526 119.358C339.333 109.068 331.997 97.0793 320.645 96.6523ZM299.75 129.879C294.747 128.692 291.656 123.679 292.844 118.679C294.031 113.676 299.044 110.585 304.047 111.773C309.047 112.96 312.138 117.973 310.95 122.976C309.764 127.975 304.75 131.066 299.75 129.879Z" fill="#E5E9EA"/>
<path d="M278.383 134.496C275.418 140.03 268.529 142.113 262.995 139.148C257.461 136.184 255.379 129.295 258.343 123.761C261.308 118.227 268.197 116.143 273.731 119.108C279.265 122.073 281.347 128.962 278.383 134.496Z" fill="#42C0E2"/>
<path d="M253.966 112.442C251.001 117.976 244.112 120.058 238.578 117.094C233.044 114.129 230.961 107.24 233.925 101.706C236.89 96.1719 243.78 94.0888 249.314 97.0534C254.847 100.018 256.93 106.908 253.966 112.442Z" fill="#49BD90"/>
<path d="M250.406 79.0765C247.441 84.6106 240.553 86.6932 235.018 83.7285C229.484 80.7639 227.401 73.8747 230.365 68.3407C233.33 62.8066 240.22 60.7236 245.754 63.6882C251.288 66.6529 253.37 73.5424 250.406 79.0765Z" fill="#FA70B2"/>
<path d="M273.899 55.3193C270.934 60.8533 264.044 62.9364 258.51 59.9717C252.976 57.0071 250.894 50.1175 253.858 44.5834C256.823 39.0494 263.712 36.9667 269.246 39.9314C274.78 42.896 276.863 49.7852 273.899 55.3193Z" fill="#FFD061"/>
<path d="M335.229 103.638L321.967 124.346L293.824 168.286C293.257 169.174 292.196 169.664 290.928 169.746C289.661 169.828 288.181 169.496 286.777 168.735C283.968 167.216 282.437 164.511 283.301 162.592L304.691 114.997L314.771 92.5676L335.229 103.638Z" fill="#FFD061"/>
<path d="M289.544 169.678C287.957 168.185 287.253 166.296 287.902 164.85L320.54 95.6903L314.771 92.5676L304.692 114.997L283.302 162.591C282.438 164.51 283.969 167.215 286.777 168.735C287.693 169.231 288.644 169.546 289.544 169.678Z" fill="#EF8930"/>
<path d="M321.967 124.346L335.229 103.638L320.54 95.6903L314.77 92.5671L304.691 114.998L310.058 117.901L321.967 124.346Z" fill="#3E4B5C"/>
<path d="M314.77 92.5681C307.646 83.3238 314.217 68.6901 327.067 64.864C339.916 61.038 346.236 58.0747 349.27 52.466C349.27 52.466 362.921 99.6415 335.229 103.639L314.77 92.5681Z" fill="url(#paint5_linear)"/>
<path d="M310.058 117.901L320.54 95.6903L314.77 92.5671L304.691 114.998L310.058 117.901Z" fill="#243142"/>
</g>
<defs>
<linearGradient id="paint0_linear" x1="18.6364" y1="138.479" x2="158.697" y2="105.025" gradientUnits="userSpaceOnUse">
<stop stop-color="#47D0FF"/>
<stop offset="1" stop-color="#00AAE6"/>
</linearGradient>
<linearGradient id="paint1_linear" x1="20.8953" y1="144.963" x2="160.284" y2="111.67" gradientUnits="userSpaceOnUse">
<stop stop-color="#47D0FF"/>
<stop offset="1" stop-color="#00AAE6"/>
</linearGradient>
<linearGradient id="paint2_linear" x1="208.903" y1="205.272" x2="225.234" y2="209.007" gradientUnits="userSpaceOnUse">
<stop stop-color="#47D0FF"/>
<stop offset="1" stop-color="#00AAE6"/>
</linearGradient>
<linearGradient id="paint3_linear" x1="165.361" y1="195.311" x2="181.697" y2="199.048" gradientUnits="userSpaceOnUse">
<stop stop-color="#47D0FF"/>
<stop offset="1" stop-color="#00AAE6"/>
</linearGradient>
<linearGradient id="paint4_linear" x1="186.857" y1="201.51" x2="203.185" y2="205.245" gradientUnits="userSpaceOnUse">
<stop stop-color="#47D0FF"/>
<stop offset="1" stop-color="#00AAE6"/>
</linearGradient>
<linearGradient id="paint5_linear" x1="317.423" y1="69.117" x2="352.381" y2="87.8446" gradientUnits="userSpaceOnUse">
<stop stop-color="#47D0FF"/>
<stop offset="1" stop-color="#00AAE6"/>
</linearGradient>
<clipPath id="clip0">
<rect width="144" height="144" fill="white" transform="translate(0 60.4534) rotate(-13.4334)"/>
</clipPath>
<clipPath id="clip1">
<rect width="134" height="134" fill="white" transform="translate(147.879 109) rotate(12.884)"/>
</clipPath>
<clipPath id="clip2">
<rect width="132" height="132" fill="white" transform="translate(251.333) rotate(28.1784)"/>
</clipPath>
</defs>
</svg>
