<svg width="321" height="293" viewBox="0 0 321 293" fill="none" xmlns="http://www.w3.org/2000/svg">
<path d="M272.207 107.062C270.558 106.066 269.076 104.884 267.778 103.557C268.863 104.354 270.031 105.067 271.279 105.684L272.207 107.062Z" fill="#404040" stroke="#404040" stroke-linejoin="round"/>
<path d="M302.869 94.691C305.294 89.5631 305.695 83.9881 304.389 78.8783C306.817 84.4467 306.982 90.9614 304.361 96.9027L302.869 94.691Z" fill="#404040" stroke="#404040" stroke-linejoin="round"/>
<path d="M274.105 108.087L273.004 106.455C284.034 110.86 296.723 106.28 302.354 95.7158L303.864 97.9549C298.37 108.868 285.134 113.387 274.105 108.087Z" fill="#404040" stroke="#404040" stroke-linejoin="round"/>
<path d="M271.619 105.294C283.006 110.849 296.74 106.12 302.294 94.733C307.849 83.3456 303.12 69.6116 291.733 64.0572C280.346 58.5028 266.612 63.2313 261.057 74.6186C255.503 86.006 260.231 99.74 271.619 105.294Z" fill="url(#paint0_linear)"/>
<path d="M285.041 84.5888C284.801 84.3451 284.574 84.1126 284.359 83.8915L287.064 78.3469C287.645 78.8882 287.949 79.4667 288.02 79.9108C288.187 80.958 289.171 81.6715 290.218 81.5045C291.265 81.3377 291.978 80.3535 291.811 79.3063C291.563 77.75 290.561 76.0627 288.789 74.8104L288.967 74.446C289.431 73.4931 289.036 72.3435 288.083 71.8787C287.13 71.4139 285.98 71.8097 285.516 72.7626L285.274 73.2584C284.983 73.1888 284.683 73.1283 284.373 73.078C281.89 72.6739 279.229 73.98 277.904 76.2541C276.595 78.4995 276.848 81.1288 278.58 83.2879C278.826 83.5941 279.225 84.0458 279.74 84.6039L276.501 91.2438C275.743 90.5455 275.144 89.7029 274.935 88.787C274.699 87.7532 273.67 87.1065 272.636 87.342C271.603 87.5779 270.956 88.6071 271.191 89.641C271.687 91.8153 273.136 93.5554 274.77 94.7917L274.652 95.0353C274.187 95.9882 274.583 97.1378 275.535 97.6026C276.488 98.0674 277.638 97.6716 278.103 96.7187L278.157 96.6069C282.206 97.9839 285.08 96.3157 286.441 94.2386C288.346 91.3317 287.771 87.3634 285.041 84.5888ZM281.221 78.1882C281.703 77.3609 282.659 76.8152 283.524 76.8456L281.562 80.8681C280.655 79.7265 280.875 78.7812 281.221 78.1882ZM283.23 92.1338C282.565 93.1478 281.361 93.4879 279.863 93.11L282.567 87.5668C283.992 89.2192 283.93 91.0652 283.23 92.1338Z" fill="white"/>
<path d="M85.982 130.576L81.0115 133C87.7103 133.184 94.1325 131.882 99.9462 129.382C95.4911 130.467 90.7977 130.899 85.982 130.576Z" fill="#404040" stroke="#404040" stroke-linejoin="round"/>
<path d="M43.2103 81.2079C44.2251 67.8698 50.8441 56.2818 60.5935 48.5928C47.8734 55.5799 38.7904 68.5742 37.4144 84.035L43.2103 81.2079Z" fill="#404040" stroke="#404040" stroke-linejoin="round"/>
<path d="M78.9431 132.897L84.0492 130.406C59.9035 127.779 41.8834 106.721 43.137 82.3564L37.3262 85.1907C35.7609 109.804 54.3259 131.104 78.9431 132.897Z" fill="#404040" stroke="#404040" stroke-linejoin="round"/>
<path d="M85.8828 130.068C60.8279 128.317 41.9366 106.586 43.6878 81.5313C45.439 56.4764 67.1696 37.5851 92.2244 39.3363C117.279 41.0875 136.171 62.8181 134.419 87.8729C132.668 112.928 110.938 131.819 85.8828 130.068Z" fill="url(#paint1_linear)"/>
<path d="M93.0477 81.217C92.3945 81.0365 91.7742 80.8623 91.1861 80.6959L90.3334 68.4965C91.8681 68.8493 92.9626 69.5416 93.5242 70.2341C94.8488 71.8664 97.2454 72.1159 98.8777 70.7912C100.51 69.4669 100.759 67.07 99.4348 65.4377C97.4664 63.0118 94.0722 61.1091 89.7896 60.7152L89.7335 59.9134C89.587 57.8169 87.768 56.2356 85.6715 56.3821C83.575 56.5286 81.9937 58.3476 82.1402 60.4441L82.2164 61.5349C81.6487 61.7035 81.0735 61.8971 80.4915 62.1179C75.8277 63.8856 72.555 68.7647 72.5332 73.9827C72.5115 79.1352 75.5522 83.3983 80.6666 85.3875C81.3921 85.6695 82.524 86.0501 83.9612 86.4979L84.9823 101.107C82.9881 100.66 81.1258 99.8066 79.8595 98.4412C78.4291 96.9006 76.0215 96.8102 74.4804 98.2391C72.9394 99.6688 72.8491 102.077 74.2784 103.618C77.2851 106.859 81.4971 108.411 85.5279 108.913L85.5654 109.449C85.7119 111.546 87.5309 113.127 89.6274 112.981C91.7239 112.834 93.3052 111.015 93.1587 108.919L93.1415 108.673C101.457 107.024 104.738 101.311 105.016 96.396C105.405 89.517 100.484 83.2752 93.0477 81.217ZM80.1449 74.0154C80.153 72.1171 81.2536 70.2326 82.7681 69.4278L83.3867 78.2781C80.698 77.2174 80.139 75.3763 80.1449 74.0154ZM97.4161 95.9657C97.2805 98.3651 95.5502 100.143 92.6038 100.979L91.7513 88.7824C95.8358 90.2065 97.5594 93.4369 97.4161 95.9657Z" fill="white"/>
<path d="M187.978 212.113L172.643 238.842C166.285 249.923 152.165 253.748 141.092 247.39C130.017 241.036 126.192 226.915 132.544 215.843L163.22 162.375C169.572 151.303 183.694 147.478 194.766 153.83C198.457 155.948 203.166 154.672 205.283 150.982C207.401 147.291 206.125 142.582 202.434 140.464C183.98 129.876 160.441 136.252 149.853 154.707L119.178 208.174C108.59 226.628 114.967 250.167 133.421 260.755C151.876 271.351 175.417 264.974 186.01 246.51L201.345 219.781C203.462 216.09 202.187 211.381 198.496 209.263C194.805 207.146 190.096 208.422 187.978 212.113Z" fill="url(#paint2_linear)"/>
<path d="M247.677 61.6085C229.223 51.0208 205.676 57.399 195.088 75.8533L176.689 107.922C174.572 111.613 175.847 116.322 179.538 118.44C183.229 120.557 187.938 119.282 190.056 115.591L208.454 83.522C214.807 72.4496 228.936 68.6224 240.008 74.9749C251.08 81.3272 254.905 95.449 248.553 106.521L214.814 165.329C208.462 176.401 194.34 180.226 183.268 173.873C179.577 171.756 174.868 173.031 172.751 176.722C170.633 180.413 171.909 185.122 175.599 187.24C194.054 197.828 217.593 191.452 228.181 172.997L261.92 114.19C272.507 95.7357 266.131 72.1961 247.677 61.6085Z" fill="url(#paint3_linear)"/>
<path d="M169.557 103.663L187.956 71.5943L195.088 75.8533L176.69 107.922L169.557 103.663Z" fill="url(#paint4_linear)"/>
<path d="M112.046 203.915L142.721 150.448L149.853 154.707L119.178 208.174L112.046 203.915Z" fill="url(#paint5_linear)"/>
<path d="M172.406 114.181C168.715 112.063 167.44 107.354 169.557 103.663L176.689 107.922C174.618 111.534 175.794 116.12 179.303 118.299L179.538 118.44C179.459 118.394 179.38 118.347 179.303 118.299L172.406 114.181Z" fill="url(#paint6_linear)"/>
<path d="M182.924 111.332C180.806 115.023 176.097 116.298 172.406 114.181L179.538 118.44C183.229 120.557 187.938 119.282 190.056 115.591L182.924 111.332Z" fill="url(#paint7_linear)"/>
<path d="M201.322 79.263L182.924 111.332L190.056 115.591L208.454 83.522L201.322 79.263Z" fill="url(#paint8_linear)"/>
<path d="M156.088 158.117L125.412 211.584L132.544 215.843L163.22 162.376L156.088 158.117Z" fill="url(#paint9_linear)"/>
<path d="M187.956 71.5944C198.544 53.14 222.09 46.7618 240.545 57.3495L247.677 61.6085C229.222 51.0208 205.676 57.399 195.088 75.8534L187.956 71.5944Z" fill="url(#paint10_linear)"/>
<path d="M142.721 150.448C153.309 131.994 176.848 125.617 195.302 136.205L202.435 140.464C183.98 129.876 160.441 136.253 149.853 154.707L142.721 150.448Z" fill="url(#paint11_linear)"/>
<path d="M126.289 256.496C107.834 245.908 101.458 222.369 112.046 203.915L119.178 208.174C108.819 226.23 114.699 249.154 132.244 260.052L133.421 260.755C133.023 260.526 132.631 260.292 132.244 260.052L126.289 256.496Z" fill="url(#paint12_linear)"/>
<path d="M232.876 70.7161C221.804 64.3636 207.675 68.1908 201.322 79.2631L208.455 83.5221C214.807 72.4498 228.936 68.6226 240.008 74.9751L232.876 70.7161Z" fill="url(#paint13_linear)"/>
<path d="M187.634 149.571C176.562 143.219 162.44 147.044 156.088 158.116L163.22 162.375C169.572 151.303 183.694 147.478 194.766 153.83L187.634 149.571Z" fill="url(#paint14_linear)"/>
<path d="M133.959 243.131C122.885 236.778 119.06 222.656 125.412 211.584L132.544 215.843C126.329 226.676 129.857 240.429 140.385 246.968L141.092 247.39C140.853 247.253 140.617 247.112 140.385 246.968L133.959 243.131Z" fill="url(#paint15_linear)"/>
<path d="M165.619 172.463C167.736 168.772 172.445 167.497 176.136 169.614L183.268 173.873C179.577 171.756 174.868 173.031 172.751 176.722L165.619 172.463Z" fill="url(#paint16_linear)"/>
<path d="M168.467 182.981C164.776 180.863 163.501 176.154 165.619 172.463L172.751 176.722C170.679 180.334 171.855 184.92 175.364 187.099L175.6 187.24C175.52 187.194 175.441 187.147 175.364 187.099L168.467 182.981Z" fill="url(#paint17_linear)"/>
<path d="M198.152 146.723C200.223 143.111 199.047 138.525 195.538 136.346L195.303 136.205C195.382 136.251 195.461 136.298 195.538 136.346L202.435 140.464C206.126 142.582 207.401 147.291 205.284 150.982L198.152 146.723Z" fill="url(#paint18_linear)"/>
<path d="M198.152 146.723C196.034 150.414 191.325 151.689 187.634 149.572L194.766 153.831C198.457 155.948 203.166 154.673 205.284 150.982L198.152 146.723Z" fill="url(#paint19_linear)"/>
<path d="M232.876 70.7161C233.115 70.8531 233.35 70.9937 233.582 71.1378L240.008 74.9751C251.08 81.3273 254.905 95.4491 248.553 106.521L241.421 102.262C247.636 91.4289 244.108 77.676 233.582 71.1378L232.876 70.7161Z" fill="url(#paint20_linear)"/>
<path d="M176.136 169.615C187.208 175.967 201.33 172.142 207.682 161.07L214.814 165.329C208.462 176.401 194.34 180.226 183.268 173.873L176.136 169.615Z" fill="url(#paint21_linear)"/>
<path d="M133.959 243.131C145.033 249.489 159.153 245.664 165.511 234.583L172.643 238.842C166.286 249.923 152.165 253.748 141.092 247.39L133.959 243.131Z" fill="url(#paint22_linear)"/>
<path d="M254.788 109.931C265.147 91.8748 259.266 68.9501 241.722 58.0524L240.545 57.3496C240.943 57.5779 241.335 57.8123 241.722 58.0524L247.677 61.6086C266.131 72.1963 272.507 95.7358 261.92 114.19L254.788 109.931Z" fill="url(#paint23_linear)"/>
<path d="M221.049 168.738C210.461 187.193 186.922 193.569 168.468 182.981L175.6 187.24C194.054 197.828 217.593 191.452 228.181 172.997L221.049 168.738Z" fill="url(#paint24_linear)"/>
<path d="M178.878 242.251C168.284 260.715 144.743 267.092 126.289 256.496L133.421 260.755C151.875 271.351 175.416 264.974 186.01 246.51L178.878 242.251Z" fill="url(#paint25_linear)"/>
<path d="M207.682 161.07L241.421 102.262L248.553 106.521L214.814 165.329L207.682 161.07Z" fill="url(#paint26_linear)"/>
<path d="M165.511 234.583L180.846 207.854L187.978 212.113L172.643 238.842L165.511 234.583Z" fill="url(#paint27_linear)"/>
<path d="M180.846 207.854C182.964 204.163 187.673 202.887 191.364 205.004L198.496 209.263C194.805 207.146 190.096 208.422 187.978 212.113L180.846 207.854Z" fill="url(#paint28_linear)"/>
<path d="M194.213 215.522C196.285 211.911 195.108 207.325 191.599 205.145L191.364 205.004C191.444 205.05 191.522 205.097 191.599 205.145L198.496 209.263C202.187 211.381 203.463 216.09 201.345 219.781L194.213 215.522Z" fill="url(#paint29_linear)"/>
<path d="M254.788 109.931L221.049 168.738L228.181 172.997L261.92 114.19L254.788 109.931Z" fill="url(#paint30_linear)"/>
<path d="M194.213 215.522L178.878 242.251L186.01 246.51L201.345 219.781L194.213 215.522Z" fill="url(#paint31_linear)"/>
<g clip-path="url(#clip0)">
<path d="M180.846 207.854L165.511 234.583C159.153 245.664 145.033 249.489 133.959 243.131C122.885 236.778 119.06 222.656 125.412 211.584L156.088 158.117C162.44 147.045 176.562 143.219 187.634 149.572C191.325 151.69 196.034 150.414 198.151 146.723C200.269 143.032 198.993 138.323 195.302 136.205C176.848 125.618 153.309 131.994 142.721 150.448L112.046 203.915C101.458 222.369 107.834 245.909 126.289 256.496C144.743 267.092 168.284 260.715 178.878 242.251L194.213 215.522C196.33 211.831 195.055 207.122 191.364 205.005C187.673 202.887 182.963 204.163 180.846 207.854Z" fill="white"/>
<path d="M240.545 57.3498C222.09 46.7622 198.543 53.1403 187.956 71.5947L169.557 103.664C167.44 107.355 168.715 112.064 172.406 114.181C176.097 116.299 180.806 115.023 182.924 111.332L201.322 79.2633C207.674 68.191 221.804 64.3638 232.876 70.7163C243.948 77.0685 247.773 91.1904 241.421 102.262L207.682 161.07C201.329 172.142 187.208 175.967 176.136 169.615C172.445 167.497 167.736 168.773 165.618 172.464C163.501 176.155 164.776 180.864 168.467 182.981C186.922 193.569 210.461 187.193 221.048 168.739L254.787 109.931C265.375 91.477 258.999 67.9375 240.545 57.3498Z" fill="white"/>
</g>
<path d="M259.954 276.744C256.279 274.679 253.137 272.002 250.593 268.906C252.783 270.814 255.252 272.473 257.979 273.816L259.954 276.744Z" fill="#404040" stroke="#404040" stroke-linejoin="round"/>
<path d="M304.001 257.854C308.038 249.4 308.3 240.104 305.449 231.886C310.28 240.771 310.997 251.725 306.506 261.568L304.001 257.854Z" fill="#404040" stroke="#404040" stroke-linejoin="round"/>
<path d="M261.815 277.716L259.725 274.617C276.117 281.595 295.238 274.79 303.488 258.883L306.006 262.616C297.898 278.885 278.201 285.629 261.815 277.716Z" fill="#404040" stroke="#404040" stroke-linejoin="round"/>
<path d="M258.318 273.426C275.063 281.593 295.258 274.64 303.426 257.896C311.593 241.151 304.64 220.956 287.896 212.789C271.151 204.621 250.956 211.574 242.788 228.319C234.621 245.063 241.574 265.258 258.318 273.426Z" fill="url(#paint32_linear)"/>
<path d="M278.056 242.979C277.703 242.621 277.369 242.279 277.053 241.954L281.03 233.801C281.885 234.597 282.331 235.447 282.435 236.1C282.681 237.64 284.128 238.689 285.668 238.444C287.207 238.199 288.257 236.751 288.011 235.211C287.646 232.923 286.171 230.442 283.566 228.601L283.828 228.065C284.511 226.664 283.929 224.973 282.528 224.29C281.127 223.606 279.437 224.188 278.753 225.589L278.398 226.318C277.97 226.216 277.529 226.127 277.073 226.053C273.422 225.459 269.51 227.379 267.56 230.723C265.636 234.025 266.008 237.891 268.555 241.066C268.917 241.516 269.503 242.181 270.26 243.001L265.498 252.765C264.382 251.738 263.503 250.499 263.196 249.152C262.848 247.632 261.335 246.681 259.815 247.028C258.295 247.374 257.344 248.888 257.69 250.408C258.42 253.605 260.55 256.164 262.953 257.982L262.778 258.34C262.095 259.741 262.677 261.432 264.078 262.115C265.479 262.799 267.169 262.217 267.853 260.815L267.933 260.651C273.886 262.676 278.113 260.223 280.114 257.169C282.916 252.894 282.069 247.059 278.056 242.979ZM272.438 233.567C273.147 232.351 274.553 231.549 275.825 231.593L272.94 237.508C271.606 235.829 271.929 234.439 272.438 233.567ZM275.392 254.074C274.415 255.565 272.644 256.065 270.441 255.509L274.417 247.358C276.513 249.788 276.422 252.502 275.392 254.074Z" fill="white"/>
<defs>
<linearGradient id="paint0_linear" x1="259.562" y1="77.685" x2="300.799" y2="97.7994" gradientUnits="userSpaceOnUse">
<stop stop-color="#47D0FF"/>
<stop offset="1" stop-color="#00AAE6"/>
</linearGradient>
<linearGradient id="paint1_linear" x1="133.948" y1="94.6196" x2="43.2162" y2="88.278" gradientUnits="userSpaceOnUse">
<stop stop-color="#47D0FF"/>
<stop offset="1" stop-color="#00AAE6"/>
</linearGradient>
<linearGradient id="paint2_linear" x1="104.903" y1="198.63" x2="283.386" y2="150.284" gradientUnits="userSpaceOnUse">
<stop stop-color="#47D0FF"/>
<stop offset="1" stop-color="#00AAE6"/>
</linearGradient>
<linearGradient id="paint3_linear" x1="104.903" y1="198.63" x2="283.386" y2="150.284" gradientUnits="userSpaceOnUse">
<stop stop-color="#47D0FF"/>
<stop offset="1" stop-color="#00AAE6"/>
</linearGradient>
<linearGradient id="paint4_linear" x1="167.545" y1="96.2354" x2="198.349" y2="87.8916" gradientUnits="userSpaceOnUse">
<stop stop-color="#47D0FF"/>
<stop offset="1" stop-color="#00AAE6"/>
</linearGradient>
<linearGradient id="paint5_linear" x1="108.093" y1="189.32" x2="155.734" y2="176.416" gradientUnits="userSpaceOnUse">
<stop stop-color="#47D0FF"/>
<stop offset="1" stop-color="#00AAE6"/>
</linearGradient>
<linearGradient id="paint6_linear" x1="169.913" y1="113.607" x2="177.661" y2="111.508" gradientUnits="userSpaceOnUse">
<stop stop-color="#47D0FF"/>
<stop offset="1" stop-color="#00AAE6"/>
</linearGradient>
<linearGradient id="paint7_linear" x1="173.642" y1="118.745" x2="189.73" y2="114.387" gradientUnits="userSpaceOnUse">
<stop stop-color="#47D0FF"/>
<stop offset="1" stop-color="#00AAE6"/>
</linearGradient>
<linearGradient id="paint8_linear" x1="180.912" y1="103.904" x2="211.715" y2="95.5603" gradientUnits="userSpaceOnUse">
<stop stop-color="#47D0FF"/>
<stop offset="1" stop-color="#00AAE6"/>
</linearGradient>
<linearGradient id="paint9_linear" x1="121.459" y1="196.989" x2="169.1" y2="184.085" gradientUnits="userSpaceOnUse">
<stop stop-color="#47D0FF"/>
<stop offset="1" stop-color="#00AAE6"/>
</linearGradient>
<linearGradient id="paint10_linear" x1="187.598" y1="70.2715" x2="245.756" y2="54.518" gradientUnits="userSpaceOnUse">
<stop stop-color="#47D0FF"/>
<stop offset="1" stop-color="#00AAE6"/>
</linearGradient>
<linearGradient id="paint11_linear" x1="142.363" y1="149.125" x2="200.514" y2="133.374" gradientUnits="userSpaceOnUse">
<stop stop-color="#47D0FF"/>
<stop offset="1" stop-color="#00AAE6"/>
</linearGradient>
<linearGradient id="paint12_linear" x1="110.233" y1="240.378" x2="126.694" y2="235.919" gradientUnits="userSpaceOnUse">
<stop stop-color="#47D0FF"/>
<stop offset="1" stop-color="#00AAE6"/>
</linearGradient>
<linearGradient id="paint13_linear" x1="201.466" y1="79.7945" x2="238.59" y2="69.7388" gradientUnits="userSpaceOnUse">
<stop stop-color="#47D0FF"/>
<stop offset="1" stop-color="#00AAE6"/>
</linearGradient>
<linearGradient id="paint14_linear" x1="156.232" y1="158.648" x2="193.348" y2="148.594" gradientUnits="userSpaceOnUse">
<stop stop-color="#47D0FF"/>
<stop offset="1" stop-color="#00AAE6"/>
</linearGradient>
<linearGradient id="paint15_linear" x1="124.684" y1="234.786" x2="136.789" y2="231.507" gradientUnits="userSpaceOnUse">
<stop stop-color="#47D0FF"/>
<stop offset="1" stop-color="#00AAE6"/>
</linearGradient>
<linearGradient id="paint16_linear" x1="166.265" y1="174.849" x2="182.352" y2="170.491" gradientUnits="userSpaceOnUse">
<stop stop-color="#47D0FF"/>
<stop offset="1" stop-color="#00AAE6"/>
</linearGradient>
<linearGradient id="paint17_linear" x1="165.974" y1="182.407" x2="173.722" y2="180.308" gradientUnits="userSpaceOnUse">
<stop stop-color="#47D0FF"/>
<stop offset="1" stop-color="#00AAE6"/>
</linearGradient>
<linearGradient id="paint18_linear" x1="197.836" y1="145.559" x2="205.584" y2="143.46" gradientUnits="userSpaceOnUse">
<stop stop-color="#47D0FF"/>
<stop offset="1" stop-color="#00AAE6"/>
</linearGradient>
<linearGradient id="paint19_linear" x1="188.87" y1="154.135" x2="204.958" y2="149.778" gradientUnits="userSpaceOnUse">
<stop stop-color="#47D0FF"/>
<stop offset="1" stop-color="#00AAE6"/>
</linearGradient>
<linearGradient id="paint20_linear" x1="238.681" y1="92.1476" x2="250.785" y2="88.869" gradientUnits="userSpaceOnUse">
<stop stop-color="#47D0FF"/>
<stop offset="1" stop-color="#00AAE6"/>
</linearGradient>
<linearGradient id="paint21_linear" x1="178.05" y1="176.68" x2="215.166" y2="166.627" gradientUnits="userSpaceOnUse">
<stop stop-color="#47D0FF"/>
<stop offset="1" stop-color="#00AAE6"/>
</linearGradient>
<linearGradient id="paint22_linear" x1="135.874" y1="250.198" x2="172.996" y2="240.143" gradientUnits="userSpaceOnUse">
<stop stop-color="#47D0FF"/>
<stop offset="1" stop-color="#00AAE6"/>
</linearGradient>
<linearGradient id="paint23_linear" x1="249.623" y1="90.863" x2="266.083" y2="86.4043" gradientUnits="userSpaceOnUse">
<stop stop-color="#47D0FF"/>
<stop offset="1" stop-color="#00AAE6"/>
</linearGradient>
<linearGradient id="paint24_linear" x1="171.059" y1="192.549" x2="229.21" y2="176.797" gradientUnits="userSpaceOnUse">
<stop stop-color="#47D0FF"/>
<stop offset="1" stop-color="#00AAE6"/>
</linearGradient>
<linearGradient id="paint25_linear" x1="128.881" y1="266.067" x2="187.04" y2="250.314" gradientUnits="userSpaceOnUse">
<stop stop-color="#47D0FF"/>
<stop offset="1" stop-color="#00AAE6"/>
</linearGradient>
<linearGradient id="paint26_linear" x1="203.244" y1="144.687" x2="255.087" y2="130.644" gradientUnits="userSpaceOnUse">
<stop stop-color="#47D0FF"/>
<stop offset="1" stop-color="#00AAE6"/>
</linearGradient>
<linearGradient id="paint27_linear" x1="163.983" y1="228.943" x2="190.585" y2="221.738" gradientUnits="userSpaceOnUse">
<stop stop-color="#47D0FF"/>
<stop offset="1" stop-color="#00AAE6"/>
</linearGradient>
<linearGradient id="paint28_linear" x1="181.492" y1="210.239" x2="197.58" y2="205.882" gradientUnits="userSpaceOnUse">
<stop stop-color="#47D0FF"/>
<stop offset="1" stop-color="#00AAE6"/>
</linearGradient>
<linearGradient id="paint29_linear" x1="193.898" y1="214.358" x2="201.646" y2="212.259" gradientUnits="userSpaceOnUse">
<stop stop-color="#47D0FF"/>
<stop offset="1" stop-color="#00AAE6"/>
</linearGradient>
<linearGradient id="paint30_linear" x1="216.611" y1="152.355" x2="268.454" y2="138.313" gradientUnits="userSpaceOnUse">
<stop stop-color="#47D0FF"/>
<stop offset="1" stop-color="#00AAE6"/>
</linearGradient>
<linearGradient id="paint31_linear" x1="177.35" y1="236.612" x2="203.952" y2="229.406" gradientUnits="userSpaceOnUse">
<stop stop-color="#47D0FF"/>
<stop offset="1" stop-color="#00AAE6"/>
</linearGradient>
<linearGradient id="paint32_linear" x1="240.589" y1="232.827" x2="301.226" y2="262.405" gradientUnits="userSpaceOnUse">
<stop stop-color="#47D0FF"/>
<stop offset="1" stop-color="#00AAE6"/>
</linearGradient>
<clipPath id="clip0">
<rect width="184.919" height="184.919" fill="white" transform="translate(70.0001 91.856) rotate(-15.1561)"/>
</clipPath>
</defs>
</svg>
