<svg width="1550" height="520" viewBox="0 0 1550 520" fill="none" xmlns="http://www.w3.org/2000/svg">
<g clip-path="url(#clip0)">
<path d="M1009.84 272.521L1004.46 281.828C989.073 308.483 955.912 318.62 928.497 305.935L917.447 325.074L940.715 338.507C943.284 339.99 944.165 343.279 942.682 345.848C941.199 348.416 937.91 349.298 935.342 347.814L879.499 315.574C876.93 314.091 876.049 310.802 877.532 308.234C879.015 305.665 882.304 304.784 884.873 306.267L908.14 319.7L919.19 300.562C894.498 283.162 886.695 249.375 902.085 222.72L907.458 213.413C908.941 210.844 912.23 209.963 914.799 211.446L930.31 220.402L924.937 229.709L914.079 223.44L911.392 228.093C898.059 251.187 905.999 280.822 929.093 294.156C952.187 307.489 981.822 299.548 995.156 276.454L997.842 271.801L986.984 265.532L992.358 256.225L1007.87 265.18C1010.44 266.663 1011.32 269.952 1009.84 272.521Z" fill="#0097F0"/>
<path d="M1009.84 272.521L1004.46 281.828C989.073 308.483 955.912 318.62 928.497 305.935L917.447 325.074L940.715 338.507C943.284 339.991 944.165 343.279 942.682 345.848C941.199 348.416 937.91 349.298 935.342 347.815L907.42 331.694L929.093 294.156C952.187 307.489 981.822 299.548 995.156 276.454L997.842 271.801L986.984 265.532L992.358 256.225L1007.87 265.18C1010.44 266.664 1011.32 269.952 1009.84 272.521Z" fill="#47D0FF"/>
<path d="M999.127 172.853C981.165 162.483 958.116 168.659 947.745 186.621L920.699 233.467C910.329 251.428 916.505 274.478 934.467 284.849C952.428 295.219 975.478 289.043 985.849 271.081L1012.89 224.235C1023.27 206.274 1017.09 183.224 999.127 172.853Z" fill="#00AAE6"/>
<path d="M1012.89 224.235L985.849 271.081C975.478 289.044 952.429 295.219 934.467 284.849L999.127 172.854C1017.09 183.224 1023.27 206.273 1012.89 224.235Z" fill="#47D0FF"/>
<path d="M944.353 160.257C941.783 158.773 938.496 159.654 937.012 162.224L923.579 185.492C922.095 188.062 922.975 191.348 925.545 192.832C928.115 194.316 931.402 193.435 932.886 190.865L946.319 167.597C947.803 165.027 946.923 161.741 944.353 160.257Z" fill="#47D0FF"/>
<path d="M933.978 135.239C931.408 133.756 928.121 134.636 926.637 137.206L896.904 188.705C895.421 191.275 896.301 194.562 898.871 196.046C901.441 197.529 904.728 196.649 906.211 194.079L935.944 142.58C937.428 140.01 936.548 136.723 933.978 135.239Z" fill="#47D0FF"/>
<path d="M1037.42 213.992C1034.85 212.508 1031.57 213.388 1030.08 215.958L1016.65 239.226C1015.17 241.796 1016.05 245.082 1018.62 246.566C1021.19 248.05 1024.47 247.169 1025.96 244.599L1039.39 221.332C1040.87 218.762 1039.99 215.475 1037.42 213.992Z" fill="#00AAE6"/>
<path d="M1064.28 210.468C1061.71 208.984 1058.42 209.864 1056.94 212.434L1027.2 263.934C1025.72 266.504 1026.6 269.79 1029.17 271.274C1031.74 272.758 1035.03 271.877 1036.51 269.307L1066.24 217.808C1067.73 215.238 1066.85 211.951 1064.28 210.468Z" fill="#00AAE6"/>
</g>
<g clip-path="url(#clip1)">
<path d="M722.287 123.736L647.854 151.843C647.434 152.002 647.041 152.226 646.69 152.507L645.868 153.175C644.073 154.633 643.8 157.271 645.258 159.065C645.267 159.076 645.276 159.087 645.285 159.098L728.117 259.3L713.373 298.725C712.564 300.892 713.665 303.304 715.832 304.113C716.783 304.467 717.83 304.465 718.779 304.105L781.459 280.436C792.277 276.351 797.735 264.27 793.65 253.453L749.271 135.928C745.186 125.109 733.105 119.651 722.287 123.736Z" fill="#ECEFF1"/>
<path d="M735.84 255.525C734.677 254.367 732.944 253.996 731.409 254.575L692.234 269.368C690.07 270.185 688.979 272.602 689.796 274.765C689.973 275.236 690.235 275.671 690.567 276.05L714.154 302.952C715.126 304.059 716.609 304.573 718.058 304.306C718.304 304.259 718.545 304.192 718.779 304.105C719.908 303.678 720.797 302.784 721.219 301.653L736.808 259.958C737.383 258.419 737.005 256.685 735.84 255.525Z" fill="#1976D2"/>
<path d="M742.997 178.582L688.152 199.292C685.989 200.109 683.572 199.017 682.755 196.854C681.938 194.69 683.03 192.274 685.193 191.457L740.038 170.746C742.202 169.929 744.618 171.021 745.435 173.185C746.252 175.348 745.161 177.765 742.997 178.582Z" fill="#455A64"/>
<path d="M711.657 190.416C709.494 191.233 707.077 190.142 706.26 187.978L703.302 180.143C702.485 177.98 703.576 175.563 705.74 174.746C707.903 173.929 710.32 175.021 711.137 177.184L714.095 185.019C714.912 187.183 713.821 189.599 711.657 190.416Z" fill="#455A64"/>
<path d="M717.656 241.864C715.492 242.679 713.077 241.586 712.262 239.421C711.785 238.156 711.949 236.739 712.701 235.616C725.256 216.945 728.407 187.358 725.848 180.581C725.031 178.418 726.123 176.001 728.286 175.184C730.45 174.367 732.866 175.459 733.683 177.623C737.583 187.949 732.745 220.822 719.654 240.277C719.169 241.001 718.471 241.556 717.656 241.864Z" fill="#455A64"/>
<path d="M751.955 237.864C750.975 238.236 749.893 238.226 748.919 237.838C745.101 236.308 711.326 222.635 702.751 213.367C701.178 211.669 701.279 209.018 702.976 207.445C704.674 205.872 707.325 205.973 708.898 207.671C715.085 214.358 742.139 226.093 752.037 230.045C754.188 230.896 755.242 233.329 754.391 235.48C753.954 236.584 753.068 237.451 751.955 237.864Z" fill="#455A64"/>
<path d="M736.115 255.824L628.974 126.19C627.833 124.811 625.942 124.309 624.267 124.941L561.587 148.61C550.77 152.695 545.312 164.777 549.397 175.594L593.776 293.119C597.861 303.937 609.942 309.395 620.76 305.31L734.367 262.41C736.531 261.593 737.622 259.177 736.805 257.013C736.642 256.582 736.409 256.18 736.115 255.824Z" fill="url(#paint0_linear)"/>
<path d="M657.853 237.59C656.197 238.216 654.326 237.732 653.181 236.382L620.473 197.867L621.387 248.388C621.335 250.7 619.419 252.533 617.107 252.482C614.926 252.434 613.147 250.718 613.02 248.54L611.897 186.298C612.086 183.901 614.184 182.111 616.581 182.3C617.591 182.379 618.542 182.809 619.27 183.514L659.567 230.963C661.064 232.719 660.858 235.354 659.107 236.857C658.734 237.172 658.31 237.42 657.853 237.59Z" fill="#FAFAFA"/>
<path d="M637.225 218.523L621.555 224.44C619.391 225.257 616.975 224.166 616.158 222.002C615.341 219.839 616.433 217.422 618.596 216.605L634.266 210.688C636.43 209.871 638.846 210.963 639.663 213.126C640.48 215.29 639.389 217.706 637.225 218.523Z" fill="#FAFAFA"/>
</g>
<g clip-path="url(#clip2)">
<path d="M909.845 343H742.586C739.729 343 737.414 340.685 737.414 337.829V125.124C737.414 122.268 739.729 119.953 742.586 119.953H909.845C912.702 119.953 915.017 122.268 915.017 125.124V337.829C915.016 340.685 912.701 343 909.845 343Z" fill="#7398D3"/>
<path d="M893.13 325.763H725.87C723.014 325.763 720.699 323.448 720.699 320.591V107.887C720.699 105.031 723.014 102.716 725.87 102.716H893.13C895.986 102.716 898.301 105.031 898.301 107.887V320.591C898.301 323.447 895.985 325.763 893.13 325.763Z" fill="#A2B9E2"/>
<path d="M876.414 309.047H709.155C706.298 309.047 703.983 306.732 703.983 303.876V91.1712C703.984 88.3151 706.299 86.0001 709.155 86.0001H876.414C879.27 86.0001 881.585 88.3151 881.585 91.1712V303.876C881.585 306.732 879.27 309.047 876.414 309.047Z" fill="#D8E2F1"/>
<path d="M871.138 86.0001V309.047H876.414C879.27 309.047 881.585 306.732 881.585 303.876V91.1712C881.585 88.3151 879.27 86.0001 876.414 86.0001L871.138 86.0001Z" fill="#B9CBEA"/>
<path d="M776.069 101.971H723.834C721.692 101.971 719.955 103.708 719.955 105.849V177.935C719.955 180.077 721.692 181.813 723.834 181.813H776.069C778.211 181.813 779.947 180.077 779.947 177.935V105.85C779.947 103.708 778.211 101.971 776.069 101.971Z" fill="#F8A8C8"/>
<path d="M861.736 101.971H794.874C792.732 101.971 790.996 103.708 790.996 105.849V123.61C790.996 125.751 792.732 127.488 794.874 127.488H861.736C863.878 127.488 865.614 125.751 865.614 123.61V105.85C865.614 103.708 863.878 101.971 861.736 101.971Z" fill="#359760"/>
<path d="M861.736 146.293H794.874C792.732 146.293 790.996 144.557 790.996 142.415C790.996 140.273 792.732 138.537 794.874 138.537H861.736C863.878 138.537 865.614 140.273 865.614 142.415C865.614 144.557 863.878 146.293 861.736 146.293Z" fill="#A2B9E2"/>
<path d="M861.736 163.009H794.874C792.732 163.009 790.996 161.272 790.996 159.131C790.996 156.989 792.732 155.253 794.874 155.253H861.736C863.878 155.253 865.614 156.989 865.614 159.131C865.614 161.272 863.878 163.009 861.736 163.009Z" fill="#A2B9E2"/>
<path d="M861.736 181.813H794.874C792.732 181.813 790.996 180.077 790.996 177.935C790.996 175.794 792.732 174.057 794.874 174.057H861.736C863.878 174.057 865.614 175.794 865.614 177.935C865.614 180.077 863.878 181.813 861.736 181.813Z" fill="#A2B9E2"/>
<path d="M861.736 200.618H763.533C761.391 200.618 759.655 198.882 759.655 196.74C759.655 194.598 761.391 192.862 763.533 192.862H861.736C863.878 192.862 865.614 194.598 865.614 196.74C865.614 198.882 863.878 200.618 861.736 200.618Z" fill="#A2B9E2"/>
<path d="M744.727 200.618H723.834C721.692 200.618 719.955 198.882 719.955 196.74C719.955 194.598 721.692 192.862 723.834 192.862H744.728C746.87 192.862 748.606 194.598 748.606 196.74C748.606 198.882 746.869 200.618 744.727 200.618Z" fill="#A2B9E2"/>
<path d="M861.736 219.423H763.533C761.391 219.423 759.655 217.687 759.655 215.545C759.655 213.403 761.391 211.667 763.533 211.667H861.736C863.878 211.667 865.614 213.403 865.614 215.545C865.614 217.687 863.878 219.423 861.736 219.423Z" fill="#A2B9E2"/>
<path d="M744.727 219.423H723.834C721.692 219.423 719.955 217.687 719.955 215.545C719.955 213.403 721.692 211.667 723.834 211.667H744.728C746.87 211.667 748.606 213.403 748.606 215.545C748.606 217.687 746.869 219.423 744.727 219.423Z" fill="#A2B9E2"/>
<path d="M861.736 238.228H763.533C761.391 238.228 759.655 236.492 759.655 234.35C759.655 232.208 761.391 230.472 763.533 230.472H861.736C863.878 230.472 865.614 232.208 865.614 234.35C865.614 236.492 863.878 238.228 861.736 238.228Z" fill="#A2B9E2"/>
<path d="M744.727 238.228H723.834C721.692 238.228 719.955 236.492 719.955 234.35C719.955 232.208 721.692 230.472 723.834 230.472H744.728C746.87 230.472 748.606 232.208 748.606 234.35C748.606 236.492 746.869 238.228 744.727 238.228Z" fill="#A2B9E2"/>
<path d="M861.736 257.033H763.533C761.391 257.033 759.655 255.296 759.655 253.155C759.655 251.013 761.391 249.276 763.533 249.276H861.736C863.878 249.276 865.614 251.013 865.614 253.155C865.614 255.296 863.878 257.033 861.736 257.033Z" fill="#A2B9E2"/>
<path d="M744.727 257.033H723.834C721.692 257.033 719.955 255.296 719.955 253.155C719.955 251.013 721.692 249.276 723.834 249.276H744.728C746.87 249.276 748.606 251.013 748.606 253.155C748.606 255.296 746.869 257.033 744.727 257.033Z" fill="#A2B9E2"/>
<path d="M861.736 275.838H763.533C761.391 275.838 759.655 274.102 759.655 271.96C759.655 269.818 761.391 268.082 763.533 268.082H861.736C863.878 268.082 865.614 269.818 865.614 271.96C865.614 274.101 863.878 275.838 861.736 275.838Z" fill="#A2B9E2"/>
<path d="M744.727 275.838H723.834C721.692 275.838 719.955 274.102 719.955 271.96C719.955 269.818 721.692 268.082 723.834 268.082H744.728C746.87 268.082 748.606 269.818 748.606 271.96C748.606 274.101 746.869 275.838 744.727 275.838Z" fill="#A2B9E2"/>
</g>
<path d="M1098.56 155.557C1111.86 134.253 1141.69 90.0398 1198.67 61.8001C1253.8 34.4787 1310.45 35.8354 1336.22 37.7764" stroke="#645E14" stroke-width="4"/>
<path d="M1332.8 31.1045L1337.31 38.2752L1330.14 42.7876" stroke="#645E14" stroke-width="4" stroke-linecap="round" stroke-linejoin="round"/>
<path d="M524.132 264.604C510.838 285.908 481.007 330.121 424.024 358.361C368.895 385.682 312.248 384.326 286.473 382.385" stroke="#645E14" stroke-width="4"/>
<path d="M289.894 389.057L285.381 381.886L292.552 377.374" stroke="#645E14" stroke-width="4" stroke-linecap="round" stroke-linejoin="round"/>
<path d="M1050.04 327.041C1070.72 348.036 1116.21 391.035 1188.71 408.786C1258.84 425.96 1323.37 409.899 1352.4 401.076" stroke="#645E14" stroke-width="4"/>
<path d="M1350.19 409.593L1353.52 400.225L1344.15 396.893" stroke="#645E14" stroke-width="4" stroke-linecap="round" stroke-linejoin="round"/>
<path d="M1395.34 143.922L1399.77 150.5C1391.18 145.965 1384.14 139.588 1378.91 132.096C1383.55 136.815 1389.06 140.843 1395.34 143.922Z" fill="#404040" stroke="#404040" stroke-linejoin="round"/>
<path d="M1477.06 65.7992C1487.89 82.4399 1490.08 104.114 1481.05 123.321L1476.11 115.997C1484.02 99.5726 1483.82 81.3177 1477.06 65.7992Z" fill="#404040" stroke="#404040" stroke-linejoin="round"/>
<path d="M1401.6 151.428L1397.1 144.754C1426.4 157.984 1461.05 145.82 1475.6 117.029L1480.54 124.364C1466.14 153.533 1430.89 165.632 1401.6 151.428Z" fill="#404040" stroke="#404040" stroke-linejoin="round"/>
<path d="M1395.68 143.532C1425.32 157.991 1461.07 145.682 1475.53 116.038C1489.99 86.3937 1477.68 50.6408 1448.04 36.1813C1418.39 21.7218 1382.64 34.0312 1368.18 63.6752C1353.72 93.3191 1366.03 129.072 1395.68 143.532Z" fill="url(#paint1_linear)"/>
<path d="M1430.62 89.6298C1429.99 88.9955 1429.4 88.3902 1428.84 87.8148L1435.88 73.3809C1437.4 74.7899 1438.19 76.2958 1438.37 77.4521C1438.81 80.1782 1441.37 82.0355 1444.09 81.6008C1446.82 81.1665 1448.68 78.6043 1448.24 75.8782C1447.6 71.8269 1444.99 67.4343 1440.37 64.1744L1440.84 63.2257C1442.05 60.7452 1441.02 57.7524 1438.54 56.5425C1436.05 55.3326 1433.06 56.363 1431.85 58.8435L1431.22 60.134C1430.47 59.953 1429.69 59.7955 1428.88 59.6644C1422.41 58.6126 1415.49 62.0125 1412.04 67.9326C1408.63 73.778 1409.29 80.6228 1413.8 86.2433C1414.44 87.0403 1415.48 88.2164 1416.82 89.6693L1408.39 106.954C1406.41 105.137 1404.85 102.943 1404.31 100.559C1403.69 97.8676 1401.02 96.184 1398.32 96.7972C1395.63 97.4113 1393.95 100.09 1394.56 102.782C1395.85 108.442 1399.63 112.972 1403.88 116.19L1403.57 116.825C1402.36 119.305 1403.39 122.298 1405.87 123.508C1408.35 124.718 1411.34 123.687 1412.55 121.207L1412.7 120.916C1423.24 124.501 1430.72 120.158 1434.26 114.751C1439.22 107.183 1437.72 96.8529 1430.62 89.6298ZM1420.67 72.9676C1421.93 70.8141 1424.42 69.3934 1426.67 69.4726L1421.56 79.944C1419.2 76.9722 1419.77 74.5114 1420.67 72.9676ZM1425.9 109.271C1424.17 111.911 1421.04 112.796 1417.14 111.813L1424.18 97.3824C1427.89 101.684 1427.72 106.489 1425.9 109.271Z" fill="white"/>
<path d="M1436 435.216L1443.01 438.939C1433.3 438.972 1424.09 436.649 1415.95 432.493C1422.26 434.478 1429.02 435.448 1436 435.216Z" fill="#404040" stroke="#404040" stroke-linejoin="round"/>
<path d="M1471.44 327.854C1488.82 337.458 1500.93 355.563 1501.99 376.76L1494.18 372.616C1493.46 354.398 1484.7 338.38 1471.44 327.854Z" fill="#404040" stroke="#404040" stroke-linejoin="round"/>
<path d="M1445.06 438.897L1437.95 435.121C1470.03 433.034 1494.91 406.017 1494.22 373.767L1502.03 377.917C1503.03 410.432 1477.59 437.677 1445.06 438.897Z" fill="#404040" stroke="#404040" stroke-linejoin="round"/>
<path d="M1436.12 434.712C1469.08 433.548 1494.86 405.884 1493.7 372.922C1492.53 339.96 1464.87 314.183 1431.91 315.346C1398.94 316.51 1373.17 344.174 1374.33 377.136C1375.49 410.098 1403.16 435.876 1436.12 434.712Z" fill="url(#paint2_linear)"/>
<path d="M1441.64 370.713C1440.79 370.446 1439.99 370.19 1439.22 369.945L1438.65 353.895C1440.65 354.428 1442.06 355.386 1442.76 356.32C1444.43 358.522 1447.56 358.958 1449.76 357.294C1451.97 355.63 1452.4 352.495 1450.74 350.293C1448.26 347.02 1443.9 344.369 1438.29 343.658L1438.26 342.603C1438.16 339.845 1435.84 337.687 1433.08 337.785C1430.33 337.882 1428.17 340.198 1428.27 342.956L1428.32 344.391C1427.56 344.587 1426.8 344.815 1426.03 345.078C1419.83 347.187 1415.31 353.442 1415.04 360.289C1414.78 367.051 1418.58 372.783 1425.2 375.626C1426.14 376.029 1427.61 376.579 1429.48 377.232L1430.15 396.452C1427.56 395.775 1425.15 394.57 1423.55 392.721C1421.74 390.634 1418.59 390.407 1416.5 392.212C1414.41 394.019 1414.19 397.175 1415.99 399.263C1419.79 403.653 1425.25 405.879 1430.52 406.722L1430.54 407.427C1430.64 410.185 1432.95 412.343 1435.71 412.245C1438.47 412.148 1440.63 409.832 1440.53 407.074L1440.52 406.751C1451.51 404.963 1456.07 397.614 1456.66 391.176C1457.48 382.166 1451.31 373.751 1441.64 370.713ZM1425.03 360.677C1425.13 358.186 1426.66 355.762 1428.68 354.775L1429.09 366.418C1425.61 364.904 1424.96 362.463 1425.03 360.677ZM1446.71 390.267C1446.42 393.41 1444.07 395.664 1440.16 396.629L1439.6 380.583C1444.89 382.637 1447.01 386.955 1446.71 390.267Z" fill="white"/>
<path d="M188.966 437.913C179.509 441.187 169.303 442.812 158.706 442.455L148.185 448.044C162.54 448.227 176.123 444.733 188.013 438.419C188.013 438.419 188.013 438.419 188.013 438.419L188.966 437.913Z" fill="#404040" stroke="#404040" stroke-linejoin="round"/>
<path d="M110.401 291.919C85.335 305.229 67.7951 331.064 66.4131 361.377L77.7145 355.374C78.7313 329.087 91.7496 306.078 111.302 291.44L110.401 291.919L110.401 291.919Z" fill="#404040" stroke="#404040" stroke-linejoin="round"/>
<path d="M146.149 447.994L156.742 442.366C111.611 439.804 76.5355 401.831 77.6777 356.526L66.3684 362.533C64.9148 408.107 100.564 446.312 146.149 447.994Z" fill="#404040" stroke="#404040" stroke-linejoin="round"/>
<path d="M158.59 441.951C112.568 440.326 76.5781 401.701 78.2029 355.68C79.8277 309.659 118.452 273.668 164.474 275.293C210.495 276.918 246.485 315.543 244.86 361.564C243.236 407.585 204.611 443.576 158.59 441.951Z" fill="url(#paint3_linear)"/>
<path d="M169.063 352.595C167.878 352.223 166.752 351.865 165.685 351.523L164.894 329.115C167.684 329.858 169.645 331.196 170.631 332.5C172.955 335.575 177.331 336.184 180.405 333.86C183.48 331.536 184.089 327.16 181.765 324.085C178.311 319.516 172.212 315.815 164.389 314.822L164.337 313.349C164.201 309.498 160.968 306.486 157.117 306.622C153.266 306.758 150.254 309.991 150.39 313.842L150.46 315.845C149.409 316.118 148.343 316.437 147.263 316.804C138.605 319.749 132.3 328.482 131.93 338.042C131.564 347.482 136.866 355.486 146.112 359.455C147.424 360.017 149.474 360.786 152.079 361.698L153.027 388.532C149.401 387.587 146.042 385.905 143.808 383.323C141.284 380.41 136.878 380.092 133.964 382.613C131.05 385.135 130.732 389.542 133.254 392.457C138.558 398.586 146.179 401.695 153.533 402.871L153.568 403.855C153.704 407.706 156.937 410.719 160.788 410.583C164.638 410.447 167.651 407.214 167.515 403.363L167.499 402.911C182.84 400.416 189.213 390.155 190.034 381.166C191.183 368.586 182.558 356.837 169.063 352.595ZM145.875 338.583C146.01 335.106 148.146 331.722 150.972 330.343L151.546 346.599C146.686 344.486 145.778 341.077 145.875 338.583ZM176.135 379.897C175.735 384.285 172.452 387.433 167 388.779L166.209 366.376C173.604 369.244 176.558 375.272 176.135 379.897Z" fill="white"/>
<defs>
<linearGradient id="paint0_linear" x1="575.986" y1="246.009" x2="713.098" y2="194.233" gradientUnits="userSpaceOnUse">
<stop stop-color="#47D0FF"/>
<stop offset="1" stop-color="#00AAE6"/>
</linearGradient>
<linearGradient id="paint1_linear" x1="1364.29" y1="71.6576" x2="1471.64" y2="124.02" gradientUnits="userSpaceOnUse">
<stop stop-color="#47D0FF"/>
<stop offset="1" stop-color="#00AAE6"/>
</linearGradient>
<linearGradient id="paint2_linear" x1="1374.64" y1="386.012" x2="1494.01" y2="381.798" gradientUnits="userSpaceOnUse">
<stop stop-color="#47D0FF"/>
<stop offset="1" stop-color="#00AAE6"/>
</linearGradient>
<linearGradient id="paint3_linear" x1="244.423" y1="373.956" x2="77.7653" y2="368.072" gradientUnits="userSpaceOnUse">
<stop stop-color="#47D0FF"/>
<stop offset="1" stop-color="#00AAE6"/>
</linearGradient>
<clipPath id="clip0">
<rect width="183.413" height="183.413" fill="white" transform="translate(919.707 127) rotate(30)"/>
</clipPath>
<clipPath id="clip1">
<rect width="201" height="201" fill="white" transform="translate(542 156.007) rotate(-20.6874)"/>
</clipPath>
<clipPath id="clip2">
<rect width="257" height="257" fill="white" transform="translate(681 86.0001)"/>
</clipPath>
</defs>
</svg>
