<svg width="61" height="61" viewBox="0 0 61 61" fill="none" xmlns="http://www.w3.org/2000/svg">
<path d="M11.2696 31.9804C14.807 30.0319 18.7557 28.4056 22.4451 26.7711C28.7924 24.0938 35.1649 21.463 41.6017 19.0137C42.8541 18.5964 45.1043 18.1882 45.325 20.0442C45.2042 22.6712 44.7071 25.2829 44.3662 27.8946C43.5009 33.638 42.5008 39.3616 41.5256 45.0861C41.1895 46.9928 38.8009 47.9799 37.2725 46.7597C33.5995 44.2786 29.8982 41.8218 26.272 39.2832C25.0842 38.0762 26.1856 36.343 27.2465 35.4811C30.2717 32.4997 33.4801 29.9667 36.3472 26.8312C37.1206 24.9636 34.8354 26.5376 34.0817 27.0199C29.9401 29.8739 25.8999 32.9021 21.5334 35.4104C19.303 36.6382 16.7034 35.589 14.474 34.9038C12.475 34.0762 9.54586 33.2424 11.2694 31.9805L11.2696 31.9804Z" fill="#60253D"/>
</svg>
