<svg width="56" height="56" viewBox="0 0 56 56" fill="none" xmlns="http://www.w3.org/2000/svg">
<path d="M28.0078 21.8998L28.0758 23.0052L26.9427 22.8698C22.818 22.351 19.2146 20.5914 16.1551 17.6361L14.6593 16.1698L14.2741 17.2526C13.4582 19.6664 13.9795 22.2156 15.6792 23.9301C16.5857 24.8776 16.3817 25.0129 14.818 24.449C14.2741 24.2685 13.7982 24.1331 13.7528 24.2008C13.5942 24.3587 14.1381 26.4116 14.5687 27.2237C15.1579 28.3517 16.3591 29.4571 17.6735 30.1113L18.784 30.6302L17.4695 30.6527C16.2004 30.6527 16.1551 30.6753 16.2911 31.149C16.7443 32.6154 18.5347 34.172 20.529 34.8487L21.9341 35.3225L20.7103 36.0444C18.8973 37.0821 16.767 37.6686 14.6367 37.7137C13.6169 37.7363 12.7783 37.8265 12.7783 37.8942C12.7783 38.1198 15.5432 39.3831 17.1523 39.8794C21.9795 41.3458 27.7132 40.7141 32.0192 38.21C35.0786 36.4279 38.1381 32.8861 39.5659 29.4571C40.3364 27.6298 41.107 24.2911 41.107 22.6894C41.107 21.6516 41.175 21.5163 42.4441 20.2755C43.192 19.5536 43.8945 18.7641 44.0305 18.5385C44.2571 18.1099 44.2345 18.1099 43.0787 18.4934C41.1523 19.1701 40.8804 19.0799 41.8322 18.0647C42.5348 17.3428 43.3733 16.0344 43.3733 15.6509C43.3733 15.5832 43.0333 15.696 42.6481 15.8991C42.2401 16.1246 41.3336 16.463 40.6537 16.6661L39.4299 17.0496L38.3194 16.3051C37.7076 15.8991 36.8464 15.4479 36.3931 15.3125C35.2373 14.9967 33.4696 15.0418 32.4271 15.4028C29.5942 16.4179 27.8038 19.0348 28.0078 21.8998Z" fill="#60253D"/>
</svg>
